<svg width="46" height="43" viewBox="0 0 46 43" fill="none" xmlns="http://www.w3.org/2000/svg">
<path fill-rule="evenodd" clip-rule="evenodd" d="M13 33C20.1797 33 26 27.1797 26 20C26 12.8203 20.1797 7 13 7C5.8203 7 0 12.8203 0 20C0 27.1797 5.8203 33 13 33Z" fill="#FF9448"/>
<path fill-rule="evenodd" clip-rule="evenodd" d="M40.2084 24.5338L45.9473 38.2771C46.0491 38.5209 46.0011 38.8008 45.8237 38.9973C45.6464 39.1939 45.3713 39.2723 45.1158 39.1988L39.5327 37.594L36.7288 42.6448C36.6068 42.8647 36.3741 43 36.1231 43C36.1129 43 36.1028 42.9998 36.0925 42.9993C36.0899 42.9992 36.0873 42.9991 36.0847 42.9989C35.8192 42.9844 35.5856 42.8201 35.4839 42.5764L29.229 27.5971C28.8239 27.6323 28.4142 27.6515 28 27.6515C23.9876 27.6515 20.3664 25.9603 17.821 23.2595L11.8816 37.4833L16.6138 36.1231C16.9242 36.0337 17.2562 36.17 17.4122 36.4512L19.7887 40.7323L24.6 29.2104C24.7462 28.8603 25.1508 28.6941 25.5038 28.8391C25.8567 28.9841 26.0243 29.3855 25.8781 29.7356L20.5162 42.5764C20.4144 42.8201 20.1808 42.9844 19.9153 42.999C19.9025 42.9996 19.8896 43 19.8769 43C19.626 43 19.3933 42.8647 19.2711 42.6448L16.4673 37.594L10.8843 39.1988C10.6289 39.2722 10.3536 39.1939 10.1763 38.9973C9.99897 38.8008 9.95092 38.5209 10.0527 38.2771L16.8195 22.072C15.0881 19.7681 14.0621 16.9136 14.0621 13.8258C14.0621 6.20225 20.3146 0 28 0C35.6853 0 41.9378 6.20225 41.9377 13.8258C41.9377 20.5525 37.0693 26.1717 30.6443 27.4008L36.211 40.7323L38.5877 36.4512C38.7437 36.17 39.0755 36.0337 39.3861 36.1231L44.1184 37.4833L38.9303 25.0589C38.784 24.7089 38.9517 24.3075 39.3047 24.1624C39.6576 24.0173 40.0622 24.1837 40.2084 24.5338ZM28 1.37234C21.0775 1.37234 15.4456 6.95896 15.4456 13.8258C15.4456 20.6926 21.0775 26.2791 28 26.2791C34.9225 26.2791 40.5543 20.6926 40.5543 13.8258C40.5543 6.95896 34.9225 1.37234 28 1.37234Z" fill="#242629"/>
<path fill-rule="evenodd" clip-rule="evenodd" d="M35.4246 11.2219C35.678 11.2636 35.8869 11.4403 35.9662 11.6801C36.0456 11.92 35.9826 12.1832 35.8026 12.3632L32.507 15.6575L33.2001 20.2237C33.2379 20.4731 33.1313 20.7225 32.9234 20.8708C32.8034 20.9563 32.6612 21 32.5181 21C32.4133 21 32.3081 20.9765 32.2108 20.929L28 18.871L23.7891 20.929C23.5591 21.0413 23.2844 21.0189 23.0766 20.8707C22.8687 20.7224 22.7621 20.4731 22.7999 20.2236L23.493 15.6574L20.1975 12.3632C20.0174 12.1832 19.9544 11.92 20.0338 11.6801C20.1132 11.4402 20.322 11.2636 20.5754 11.2219L25.2145 10.4578L27.3886 6.36393C27.5074 6.14029 27.7431 6 28 6C28.257 6 28.4926 6.14029 28.6114 6.36393L30.7854 10.4578L35.4246 11.2219ZM31.0926 15.5235C31.0607 15.3137 31.131 15.1013 31.2825 14.9499L33.8918 12.3416L30.2186 11.7366C30.0054 11.7015 29.8213 11.5703 29.7213 11.3821L28 8.14064L26.2787 11.382C26.1788 11.5702 25.9946 11.7015 25.7814 11.7366L22.1083 12.3415L24.7176 14.9499C24.8691 15.1012 24.9394 15.3137 24.9075 15.5235L24.3587 19.1388L27.6927 17.5095C27.7894 17.4621 27.8947 17.4385 28 17.4385C28.1053 17.4385 28.2105 17.4622 28.3074 17.5095L31.6414 19.1388L31.0926 15.5235Z" fill="#D97A2D"/>
<path d="M38.4058 14.6871C38.0313 14.6372 37.6875 14.8999 37.638 15.2729C37.0035 20.0416 32.8795 23.6378 28.0452 23.6378C22.7091 23.6378 18.3679 19.3144 18.3679 14C18.3679 8.6857 22.7091 4.3623 28.0452 4.3623C32.8796 4.3623 37.0035 7.95842 37.638 12.7272C37.6875 13.1002 38.0319 13.363 38.4058 13.313C38.7802 13.2636 39.0436 12.9212 38.9939 12.5483C38.2698 7.10489 33.5629 3 28.0452 3C21.9549 3 17 7.93453 17 14C17 20.0656 21.9549 25 28.0452 25C33.5629 25 38.2698 20.8951 38.994 15.4517C39.0436 15.0789 38.7802 14.7365 38.4058 14.6871Z" fill="#242629"/>
</svg>
