<svg width="39.22" height="34" viewBox="0 0 39.22 34" xmlns="http://www.w3.org/2000/svg">
	<path d="m12.5 34c6.904 0 12.5-5.596 12.5-12.5s-5.596-12.5-12.5-12.5-12.5 5.596-12.5 12.5 5.596 12.5 12.5 12.5z" fill="#ff9448"/>
	<path d="m19.43 0c-0.3902 0-0.7051 0.3272-0.7051 0.7305v2.857h-9.066c-0.9108 0-1.65 0.7651-1.65 1.707v18.69c0 0.9418 0.7393 1.709 1.65 1.709h27.92c0.9107 0 1.652-0.7673 1.652-1.709v-18.69c0-0.9418-0.7411-1.707-1.652-1.707h-9.064v-2.857c0-0.4033-0.3169-0.7305-0.707-0.7305h-8.377zm0.709 1.461h6.963v2.127h-6.963v-2.127zm-10.48 3.586h27.92c0.132 0 0.2402 0.1114 0.2402 0.248v5.432c0 1.299-1.021 2.355-2.277 2.355h-9.676-4.49-9.676c-1.256 0-2.277-1.056-2.277-2.355l-0.001953-5.432c0-0.1366 0.1062-0.248 0.2383-0.248zm-0.2402 8.678c0.628 0.511 1.418 0.8164 2.277 0.8164h9.676 4.49 9.674c0.859 0 1.649-0.3054 2.277-0.8164v10.26c1e-4 0.1364-0.1062 0.248-0.2383 0.248h-27.92-0.001953c-0.1312-0.001083-0.2363-0.1123-0.2363-0.248v-10.26z"/>
	<path d="m22.09 9.646c-4e-4 0-0.3864 0.08187-0.3867 0.08203-3.56e-4 1.578e-4 -0.2946 0.2048-0.2949 0.2051-2.75e-4 2.812e-4 -0.1971 0.2946-0.1973 0.2949-1.57e-4 3.7e-4 -0.07422 0.3707-0.07422 0.3711v4.771c0 1.378 1.136 2.516 2.514 2.516 1.378 0 2.516-1.138 2.516-2.516v-4.771c0-4.25e-4 -0.06821-0.3531-0.06836-0.3535-1.48e-4 -3.71e-4 -0.195-0.3044-0.1953-0.3047-2.69e-4 -2.812e-4 -0.3063-0.2147-0.3066-0.2148s-0.3824-0.08008-0.3828-0.08008zm0.9453 1.9h1.23v3.824c0 0.3512-0.2642 0.6152-0.6152 0.6152-0.351 0-0.6152-0.2643-0.6152-0.6152z" fill="#ef8030"/>
</svg>
