<svg width="61" height="52" viewBox="0 0 61 52" fill="none" xmlns="http://www.w3.org/2000/svg">
<path fill-rule="evenodd" clip-rule="evenodd" d="M48 26C55.1797 26 61 20.1797 61 13C61 5.8203 55.1797 0 48 0C40.8203 0 35 5.8203 35 13C35 20.1797 40.8203 26 48 26Z" fill="#FF9448"/>
<path fill-rule="evenodd" clip-rule="evenodd" d="M48.1687 9H7.66862C5.55358 9.00246 3.83941 10.7019 3.83693 12.7998V29.3807C0.053956 33.207 -1.04547 38.9106 1.04852 43.8506C3.1421 48.7906 8.01996 52.0029 13.4238 52C20.5067 52 26.3255 46.5314 26.8135 39.6287H48.1687C50.2838 39.6263 51.9975 37.9264 52 35.8293V12.7998C51.9975 10.7023 50.2838 9.00246 48.1687 9ZM13.4238 50.7423C6.7108 50.7423 1.26857 45.3454 1.26857 38.6883C1.26857 32.0308 6.7108 26.6343 13.4242 26.6343C20.1372 26.6343 25.5794 32.0312 25.5794 38.6883C25.5716 45.3425 20.1339 50.7349 13.4238 50.7423ZM48.1687 38.3714C49.5836 38.3698 50.7305 37.2324 50.7317 35.8293V12.7998C50.7305 11.3963 49.5836 10.2594 48.1687 10.2577H7.66862C6.25378 10.2594 5.10687 11.3963 5.10522 12.7998V28.2482C9.09503 25.117 14.5282 24.4935 19.1336 26.638C23.7394 28.7829 26.7251 33.327 26.8436 38.3714H48.1687Z" fill="black"/>
<path fill-rule="evenodd" clip-rule="evenodd" d="M38.9999 26.4941C39.6599 26.1684 40.3831 25.9993 41.1156 26.0002V26.0006C43.1239 26.0006 44.9275 27.2588 45.6617 29.1722C46.396 31.0861 45.911 33.2647 44.4395 34.6638C42.968 36.0629 40.8099 36.3968 38.9999 35.5059C36.9471 36.5163 34.4848 35.9398 33.0648 34.1164C31.6451 32.293 31.6451 29.707 33.0648 27.8836C34.4848 26.0602 36.9471 25.4837 38.9999 26.4941ZM33.6529 32.5856C34.2492 33.8577 35.5062 34.666 36.8842 34.6642C37.1586 34.6638 37.4316 34.6316 37.6983 34.5673C36.7606 33.6286 36.2324 32.343 36.2324 31.0004C36.2324 29.6579 36.7606 28.3718 37.6983 27.4332C36.3568 27.1101 34.9533 27.6045 34.0899 28.7044C33.2261 29.804 33.0563 31.3139 33.6529 32.5856ZM40.4633 31C40.4629 32.1669 39.9198 33.2638 38.9999 33.9529C38.0801 33.2638 37.5365 32.1669 37.5365 31C37.5365 29.8331 38.0801 28.7362 38.9999 28.0471C39.9193 28.7362 40.4629 29.8331 40.4633 31ZM40.3015 34.5673C40.5682 34.6316 40.8417 34.6638 41.1156 34.6642C42.4928 34.6647 43.7477 33.856 44.3431 32.5847C44.9381 31.3135 44.7686 29.8057 43.9061 28.7066C43.0441 27.6075 41.6422 27.1123 40.3015 27.4332C41.2392 28.3714 41.7679 29.6574 41.7679 31C41.7679 32.3426 41.2392 33.6286 40.3015 34.5673Z" fill="black"/>
<path d="M8.62758 16H25.3724C25.7193 16 26 15.5521 26 15C26 14.4479 25.7193 14 25.3724 14H8.62758C8.28069 14 8 14.4479 8 15C8 15.5521 8.28069 16 8.62758 16Z" fill="black"/>
<path d="M29.3865 14H27.6135C27.2748 14 27 14.4479 27 15C27 15.5521 27.2748 16 27.6135 16H29.3865C29.7252 16 30 15.5521 30 15C30 14.4479 29.7252 14 29.3865 14Z" fill="black"/>
<path d="M9.38387 18H8.61613C8.27557 18 8 18.4473 8 19C8 19.5521 8.27557 20 8.61613 20H9.38387C9.72443 20 10 19.5521 10 19C10 18.4473 9.72443 18 9.38387 18Z" fill="black"/>
<path d="M22.3569 18H11.6431C11.2876 18 11 18.4473 11 19C11 19.5521 11.2876 20 11.6431 20H22.3569C22.712 20 23 19.5521 23 19C23 18.4473 22.712 18 22.3569 18Z" fill="black"/>
<path d="M30.2952 18H24.7048C24.3152 18 24 18.4473 24 19C24 19.5521 24.3152 20 24.7048 20H30.2952C30.6843 20 31 19.5521 31 19C31 18.4473 30.6843 18 30.2952 18Z" fill="black"/>
<path d="M18.9564 35.1444L11.2397 41.4611L8.12374 37.7899C7.89353 37.5214 7.49181 37.4908 7.22414 37.7208C6.95646 37.9507 6.92399 38.3549 7.15129 38.6255L10.6727 42.7742C10.8979 43.0402 11.2929 43.0762 11.5623 42.8555L19.764 36.1426C20.0379 35.9181 20.0796 35.513 19.8564 35.2374C19.6337 34.9618 19.2312 34.9199 18.9568 35.1444H18.9564Z" fill="#FF9448"/>
</svg>
