<svg width="67" height="54" viewBox="0 0 67 54" fill="none" xmlns="http://www.w3.org/2000/svg">
<path fill-rule="evenodd" clip-rule="evenodd" d="M54 27C61.1797 27 67 21.1797 67 14C67 6.8203 61.1797 1 54 1C46.8203 1 41 6.8203 41 14C41 21.1797 46.8203 27 54 27Z" fill="#FF9448"/>
<path fill-rule="evenodd" clip-rule="evenodd" d="M40.2056 40.558H1.58831V13.5907H7.84284C8.28143 13.5907 8.637 13.2346 8.637 12.7953C8.637 12.3561 8.28143 12 7.84284 12H0.794153C0.355569 12 0 12.3561 0 12.7953V41.3534C0 41.7926 0.355569 42.1487 0.794153 42.1487H7.70148L10.6602 48.5381C10.8422 48.9312 11.3217 49.1077 11.7147 48.925L14.6116 47.5796L23.3936 53.855C23.746 54.1067 24.2504 54.0218 24.5014 53.6695L32.7091 42.1486H40.2058C40.6444 42.1486 41 41.7925 41 41.3533C40.9998 40.9141 40.6442 40.558 40.2056 40.558ZM9.45222 42.1487H22.5296L11.7668 47.1474L9.45222 42.1487ZM16.2689 46.8099L23.6696 52.0982L30.7578 42.1487H26.3051L16.2689 46.8099Z" fill="black"/>
<path fill-rule="evenodd" clip-rule="evenodd" d="M53.2224 11.8513H46.4586L43.5615 5.4618C43.3834 5.06922 42.9134 4.89244 42.5288 5.07494L39.6921 6.42035L31.0926 0.144962C30.7475 -0.106579 30.2537 -0.0219545 30.0078 0.330543L21.9706 11.8514H11.7777C11.3482 11.8514 11 12.2075 11 12.6467C11 13.086 11.3482 13.4421 11.7777 13.4421H22.3698L22.3704 13.4422L22.3712 13.4421H45.9596L45.9625 13.4423L45.9663 13.4421H52.4447V40.4093H43.4681C43.0386 40.4093 42.6905 40.7654 42.6905 41.2047C42.6905 41.6439 43.0386 42 43.4681 42H53.2223C53.6519 42 54 41.6439 54 41.2047V12.6466C54.0001 12.2074 53.652 11.8513 53.2224 11.8513ZM44.7442 11.8513H31.9384L42.4777 6.85259L44.7442 11.8513ZM38.0692 7.19014L30.8223 1.90183L23.8813 11.8514H28.2415L38.0692 7.19014Z" fill="black"/>
<path fill-rule="evenodd" clip-rule="evenodd" d="M35 27C35 31.4112 31.6356 35 27.5 35C23.3645 35 20 31.4112 20 27C20 22.5887 23.3645 19 27.5 19C31.6356 19 35 22.5888 35 27ZM33.4283 27C33.4283 23.5131 30.7689 20.6764 27.5 20.6764C24.2311 20.6764 21.5717 23.5132 21.5717 27C21.5717 30.4868 24.2311 33.3236 27.5 33.3236C30.7689 33.3236 33.4283 30.4868 33.4283 27Z" fill="#FF9448"/>
<path d="M20.314 38H44.3727C44.809 38 45.1625 37.6495 45.1625 37.2172C45.1625 35.2467 47.1675 33.3126 49.2102 33.3126C49.6465 33.3126 50 32.9621 50 32.5299V21.4702C50 21.0379 49.6465 20.6874 49.2102 20.6874C47.1675 20.6874 45.1625 18.7533 45.1625 16.7828C45.1625 16.3505 44.809 16 44.3727 16H9.19762C8.76145 16 8.40784 16.3505 8.40784 16.7828C8.40784 18.874 6.71717 20.7083 4.78978 20.7083C4.35361 20.7083 4 21.0587 4 21.491V32.5088C4 32.9411 4.35361 33.2915 4.78978 33.2915C6.71717 33.2915 8.40784 35.1259 8.40784 37.217C8.40784 37.6493 8.76145 37.9998 9.19762 37.9998H17.1549C17.591 37.9998 17.9446 37.6493 17.9446 37.217C17.9446 36.7847 17.591 36.4343 17.1549 36.4343H9.92865C9.76459 35.3359 9.26228 34.2724 8.49556 33.4308C7.68629 32.5424 6.67168 31.9766 5.57946 31.7921V22.2075C6.67158 22.023 7.68619 21.4572 8.49556 20.5688C9.26228 19.7273 9.76459 18.6637 9.92865 17.5653H43.6526C44.0509 19.8152 46.1048 21.8075 48.4204 22.1876V31.8119C46.1048 32.1919 44.0509 34.1843 43.6526 36.4342H20.314C19.8778 36.4342 19.5242 36.7846 19.5242 37.2169C19.5242 37.6495 19.8778 38 20.314 38Z" fill="black"/>
</svg>
