<svg width="20" height="20" viewBox="0 0 20 20" xmlns="http://www.w3.org/2000/svg">
	<path d="m7.082 0c-0.23 0-0.416 0.2265-0.416 0.5059v2.322c0 0.2794 0.186 0.5059 0.416 0.5059 0.23 0 0.418-0.2265 0.418-0.5059v-2.322c0-0.2794-0.1879-0.5059-0.418-0.5059zm-4.105 2.5c-0.1221 0-0.2428 0.0475-0.3359 0.1406-0.1862 0.1862-0.1862 0.4876 0 0.6738l1.545 1.545c0.1862 0.1862 0.4879 0.1862 0.6738 0 0.1862-0.1862 0.1862-0.4876 0-0.6738l-1.545-1.545c-0.09312-0.09312-0.2158-0.1406-0.3379-0.1406zm9.047 0c-0.122 0-0.2447 0.0475-0.3379 0.1406l-1.545 1.545c-0.1863 0.1862-0.1863 0.4876 0 0.6738 0.1862 0.1862 0.4875 0.1862 0.6738 0l1.545-1.545c0.1863-0.1862 0.1863-0.4876 0-0.6738-0.0931-0.09312-0.214-0.1406-0.3359-0.1406zm-5.76 3.346c-0.1007 0.02112-0.1956 0.07063-0.2715 0.1465-0.1514 0.1517-0.1989 0.3782-0.1211 0.5781l5.088 13.09c0.0809 0.2077 0.2811 0.3438 0.5039 0.3438 0.0084 0 0.01699 4e-4 0.02539 0 0.232-0.0109 0.4321-0.1674 0.4961-0.3906l1.021-3.578 3.184 3.186c0.2112 0.2112 0.5544 0.2112 0.7656 0l2.262-2.262c0.2112-0.2112 0.2112-0.5544 0-0.7656l-3.186-3.184 3.576-1.021c0.2232-0.0638 0.3817-0.2641 0.3926-0.4961 0.0105-0.2316-0.1272-0.4431-0.3438-0.5273l-13.09-5.09c-0.09979-0.0389-0.206-0.04651-0.3066-0.02539zm-5.758 0.8203c-0.2794 0-0.5059 0.186-0.5059 0.416 0 0.23 0.2265 0.418 0.5059 0.418h2.322c0.2797 0 0.5059-0.1879 0.5059-0.418 0-0.23-0.2261-0.416-0.5059-0.416zm6.818 0.6582 10.44 4.061-2.914 0.834c-0.1841 0.0528-0.3268 0.1973-0.375 0.3828-0.0482 0.1855 0.0054 0.3836 0.1406 0.5195l3.451 3.451-1.496 1.498-3.453-3.453c-0.1355-0.1352-0.3321-0.1888-0.5176-0.1406-0.1855 0.0479-0.332 0.1905-0.3848 0.375l-0.832 2.914zm-2.801 2.676c-0.122 0-0.2448 0.04749-0.3379 0.1406l-1.545 1.545c-0.1363 0.1366-0.1774 0.3414-0.1035 0.5195 0.07388 0.1782 0.2467 0.2949 0.4395 0.2949 0.1266 0 0.2485-0.05123 0.3379-0.1406l1.545-1.545c0.1862-0.186 0.1862-0.4876 0-0.6738-0.09312-0.09313-0.2139-0.1406-0.3359-0.1406z" fill="#fff"/>
</svg>
