<svg width="42.85" height="39.63" viewBox="0 0 42.85 39.63" xmlns="http://www.w3.org/2000/svg">
	<path d="m30.35 25c6.904 0 12.5-5.596 12.5-12.5 0-6.904-5.596-12.5-12.5-12.5s-12.5 5.596-12.5 12.5c0 6.904 5.596 12.5 12.5 12.5z" fill="#ff9448"/>
	<path d="m18.24 6.479c-8.224 0-14.91 6.688-14.91 14.91 0 8.224 6.688 14.91 14.91 14.91 3.429 0 6.78-1.198 9.436-3.373 0.2928-0.2399 0.3355-0.6681 0.0957-0.9609-0.2399-0.2928-0.6661-0.3337-0.959-0.09375-2.413 1.976-5.457 3.064-8.572 3.064-7.469 0-13.55-6.08-13.55-13.55s6.08-13.55 13.55-13.55c7.469 0 13.55 6.08 13.55 13.55 0 3.115-1.088 6.16-3.064 8.572-0.2398 0.2928-0.1991 0.7191 0.09375 0.959 0.2928 0.2399 0.721 0.1971 0.9609-0.0957 2.175-2.655 3.373-6.006 3.373-9.436 0-8.224-6.688-14.91-14.91-14.91z"/>
	<path d="m18.24 3.15c-4.873 0-9.453 1.896-12.9 5.342-3.446 3.446-5.342 8.026-5.342 12.9s1.896 9.453 5.342 12.9c3.446 3.446 8.026 5.344 12.9 5.344s9.453-1.898 12.9-5.344c3.446-3.446 5.344-8.026 5.344-12.9s-1.898-9.453-5.344-12.9c-3.446-3.446-8.026-5.342-12.9-5.342zm0 1.363c9.306 0 16.88 7.571 16.88 16.88s-7.571 16.88-16.88 16.88c-9.306 0-16.88-7.571-16.88-16.88s7.571-16.88 16.88-16.88z"/>
	<path d="m11.47 12.46c-0.5779 0-1.123 0.2242-1.531 0.6328-0.4087 0.4087-0.6328 0.9532-0.6328 1.531-1e-6 0.5781 0.2242 1.121 0.6328 1.529l5.389 5.389c0.0229 0.4447 0.1466 0.864 0.3477 1.234l-5.736 5.734c-0.3249 0.325-0.3249 0.8527 0 1.178 0.1625 0.1625 0.3768 0.2422 0.5898 0.2422 0.2129 0 0.4255-0.07969 0.5879-0.2422l5.734-5.736c0.4122 0.2236 0.8857 0.3516 1.387 0.3516 1.555 0 2.829-1.226 2.908-2.762l3.623-3.623c0.4087-0.4086 0.6328-0.9513 0.6328-1.529 0-0.5779-0.2241-1.123-0.6328-1.531-0.8436-0.8436-2.217-0.8435-3.061 0l-3.471 3.473-5.238-5.238c-0.4087-0.4087-0.9513-0.6328-1.529-0.6328zm0 1.664c0.1334 0 0.2591 0.05208 0.3535 0.1465l4.738 4.74c-0.2739 0.1932-0.5119 0.4312-0.7051 0.7051l-4.74-4.738c-0.0943-0.0943-0.1465-0.2202-0.1465-0.3535 0-0.1334 0.05208-0.2591 0.1465-0.3535 0.0943-0.0943 0.2202-0.1465 0.3535-0.1465zm11.77 1.766c0.1278-1.3e-5 0.2562 0.04913 0.3535 0.1465 0.0943 0.0943 0.1465 0.2201 0.1465 0.3535 0 0.1333-0.05208 0.2573-0.1465 0.3516l-2.975 2.975c-0.1932-0.2738-0.4312-0.5118-0.7051-0.7051l2.975-2.975c0.09735-0.0973 0.2237-0.1465 0.3516-0.1465zm-5 4.252c0.6883 0 1.248 0.5617 1.248 1.25s-0.5597 1.248-1.248 1.248c-0.3426 0-0.6551-0.139-0.8809-0.3633l-2e-3 -0.0039-0.0039-2e-3c-0.2242-0.2256-0.3633-0.5363-0.3633-0.8789 0-0.6883 0.5617-1.25 1.25-1.25z"/>
	<path d="m18.24 9.658c-0.4596 0-0.832 0.3725-0.832 0.832v1.248c0 0.4595 0.3724 0.832 0.832 0.832 0.4596 0 0.832-0.3725 0.832-0.832v-1.248c0-0.4595-0.3724-0.832-0.832-0.832zm-10.9 10.9c-0.4596 0-0.832 0.3724-0.832 0.832 0 0.4595 0.3724 0.832 0.832 0.832h1.248c0.4596 0 0.832-0.3725 0.832-0.832 0-0.4596-0.3724-0.832-0.832-0.832zm20.55 0c-0.4596 0-0.832 0.3724-0.832 0.832 0 0.4595 0.3724 0.832 0.832 0.832h1.248c0.4596 0 0.832-0.3725 0.832-0.832 0-0.4596-0.3724-0.832-0.832-0.832zm-9.654 9.654c-0.4596 0-0.832 0.3724-0.832 0.832v1.248c0 0.4595 0.3724 0.832 0.832 0.832s0.832-0.3725 0.832-0.832v-1.248c0-0.4596-0.3724-0.832-0.832-0.832z" fill="#ef8030"/>
</svg>
