<svg width="40.08" height="38" viewBox="0 0 40.08 38" xmlns="http://www.w3.org/2000/svg">
	<path d="m12.5 38c6.904 0 12.5-5.596 12.5-12.5s-5.596-12.5-12.5-12.5c-6.904 0-12.5 5.596-12.5 12.5s5.596 12.5 12.5 12.5z" fill="#ff9448"/>
	<path d="m7.801 17.85c-5.3e-4 -0.0035-0.00106-0.0069-0.00141-0.0104-0.00213-0.0224-0.00316-0.045-0.0031-0.0676l-6e-5 -0.0018v-6.422c0-0.0232 0.0011-0.0464 0.0033-0.0695 2.9e-4 -0.0028 7.4e-4 -0.0057 0.00119-0.0085 3.9e-4 -0.0025 7.9e-4 -5e-3 0.00108-0.0075 0.00206-0.0177 0.00426-0.0353 0.00763-0.0529 4.4e-4 -0.0023 0.00102-0.0046 0.00161-7e-3 5e-4 -0.0019 1e-3 -0.0039 0.00141-0.0059 0.00386-0.0185 0.00798-0.0368 0.01328-0.0549 4.2e-4 -0.0014 9.4e-4 -0.0029 0.00146-0.0044 3.9e-4 -0.0011 7.9e-4 -0.0022 0.00115-0.0034 0.00598-0.0195 0.01252-0.0388 0.02008-0.0578l0.00138-0.0031c0.00818-0.0203 0.01719-0.0402 0.0273-0.0597 2.1e-4 -5e-4 5e-4 -1e-3 7.9e-4 -0.0015 1.8e-4 -3e-4 3.6e-4 -6e-4 5.2e-4 -9e-4 0.01017-0.0194 0.02104-0.0386 0.03307-0.0571 0.00108-0.0017 0.00225-0.0033 0.00342-0.0048 0.00107-0.0015 0.00213-0.0029 0.00312-0.0044 0.01059-0.0158 0.02145-0.0316 0.03349-0.0468 0.01444-0.0182 0.02978-0.0357 0.04601-0.0526l10.3-10.64c0.1289-0.1333 0.3039-0.2082 0.4863-0.2082 0.1823 0 0.3572 0.07493 0.4863 0.2082l5.936 6.136c0.2685 0.2777 0.2685 0.7278 0 1.005-0.2686 0.2776-0.704 0.2775-0.9726 0l-5.45-5.634-9.322 9.636 2.62 2.708c0.1289 0.1334 0.2014 0.3142 0.2014 0.5027s-0.0725 0.3693-0.2014 0.5026l-2.62 2.708 2.848 2.944c0.2686 0.2776 0.2686 0.7277 0 1.005-0.1342 0.1388-0.3103 0.2083-0.4862 0.2083-0.176 0-0.352-0.0695-0.4863-0.2083l-3.335-3.447c-0.01637-0.0169-0.03177-0.0346-0.04628-0.0531-0.0075-0.0094-0.01423-0.0191-0.02096-0.0289-0.00161-0.0024-0.00321-0.0047-0.00483-7e-3 -0.0018-0.0026-0.00368-0.0051-0.00555-0.0077-0.00299-4e-3 -0.00598-0.0081-0.00869-0.0123-0.0108-0.0167-0.02042-0.0338-0.02964-0.0512-6.6e-4 -0.0012-0.00136-0.0024-0.00207-0.0035-9.3e-4 -0.0016-0.00186-0.0031-0.00267-0.0047-0.00936-0.0182-0.01761-0.0367-0.02531-0.0554l-0.0033-0.0074c-0.00716-0.018-0.01321-0.0363-0.01892-0.0547-5.2e-4 -0.0016-0.00111-0.0033-0.00169-0.0049-7.1e-4 -2e-3 -0.00142-4e-3 -0.00202-6e-3 -0.00502-0.0173-0.00894-0.0347-0.01265-0.0522-5.1e-4 -0.0024-0.00111-0.0048-0.00171-0.0072-6.9e-4 -0.0027-0.00138-0.0055-0.00194-0.0083-0.00316-0.0168-0.00529-0.0337-0.00729-0.0507-3.2e-4 -0.0026-7.3e-4 -0.0052-0.00113-0.0078zm2.817-3.291-1.446-1.495v2.989z"/>
	<path d="m27.54 15.79c-0.176 0-0.352-0.0695-0.4863-0.2082l-0.0183-0.0189-12.65 13.08c-1.055 1.09-2.132 1.866-3.116 2.244-0.4823 0.1849-0.8932 0.2564-1.24 0.2564-0.3343 1e-4 -0.6089-0.0666-0.8318-0.162l-1.018 1.053c-0.1342 0.1387-0.3103 0.2082-0.4863 0.2082-0.176 0-0.352-0.0695-0.4863-0.2082-0.2686-0.2777-0.2686-0.7278 0-1.005l1.017-1.051c-0.5224-1.305 0.311-3.347 2.263-5.365l12.65-13.08-0.0183-0.0189c-0.2686-0.2777-0.2686-0.7278 0-1.005l6.844-7.074c0.6548-0.6768 1.526-1.049 2.454-1.049s1.8 0.3727 2.454 1.049c1.353 1.399 1.353 3.675 0 5.074l-6.844 7.074c-0.1343 0.1387-0.3103 0.2082-0.4862 0.2082zm4.876-11.98c-0.5606 0-1.087 0.2248-1.482 0.633l-6.357 6.572 0.0189 0.0196 0.9764 1.009 6.55-6.771c0.2687-0.2775 0.704-0.2775 0.9726 0 0.2685 0.2777 0.2685 0.7278 0 1.005l-6.55 6.771 0.9757 1.009 0.0026 0.0027 0.017 0.0176 6.357-6.572c0.817-0.8445 0.817-2.219 0-3.063-0.3949-0.4082-0.9211-0.633-1.482-0.633zm-21.63 25.75c-0.5606 0.2149-1.012 0.2231-1.206 0.0215-0.3723-0.3848-0.05612-1.751 1.402-3.44l1.927 1.992c-0.7405 0.6821-1.479 1.181-2.122 1.427zm1.154-4.438 1.954 2.02 12.17-12.58-0.4908-0.5073-0.4508 0.466c-0.1343 0.1388-0.3103 0.2082-0.4863 0.2082s-0.352-0.0694-0.4863-0.2082c-0.2685-0.2776-0.2685-0.7278 0-1.005l0.4509-0.466-0.4908-0.5073z"/>
	<path d="m39.88 19.57-5.936-6.136c-0.2686-0.2775-0.7039-0.2775-0.9726 0-0.2685 0.2776-0.2685 0.7278 0 1.005l5.45 5.634-12.43 12.85-5.955-6.155c-0.2685-0.2775-0.704-0.2775-0.9726 0-0.2685 0.2776-0.2685 0.7278 0 1.005l6.441 6.658c0.1343 0.1387 0.3103 0.2082 0.4863 0.2082s0.352-0.0695 0.4863-0.2082l13.4-13.85c0.2686-0.2776 0.2686-0.7278 0-1.005z"/>
	<path d="m32.61 4.795a0.9001 0.9001 0 0 0-0.6133 0.2832l-8.068 8.373a0.9006 0.9006 0 1 0 1.297 1.25l8.068-8.373a0.9001 0.9001 0 0 0-0.6836-1.533z" fill="#ef8031"/>
</svg>
