<svg width="53" height="38" viewBox="0 0 53 38" xmlns="http://www.w3.org/2000/svg">
	<path d="m13 37c7.18 0 13-5.82 13-13s-5.82-13-13-13-13 5.82-13 13 5.82 13 13 13z" fill="#ff9448"/>
	<path d="m14.22 0h36.55c1.226 0 2.224 1.017 2.224 2.267v24.73c0 1.25-0.9975 2.267-2.224 2.267h-12.88c-0.2046 0.5445-0.4864 1.05-0.8315 1.504v1.958c0 0.3415-0.2718 0.6182-0.6065 0.6182-0.335 0-0.6065-0.2767-0.6065-0.6182v-0.7691c-0.9472 0.6906-2.106 1.099-3.356 1.099s-2.409-0.4082-3.356-1.099v4.506l3.127-1.301c0.147-0.0609 0.3116-0.0609 0.4586 0l3.127 1.301v-0.8482c0-0.3414 0.2715-0.6182 0.6065-0.6182 0.3347 0 0.6065 0.2768 0.6065 0.6182v1.768c0 0.2059-0.1007 0.3982-0.2683 0.513-0.1014 0.0695-0.2196 0.1052-0.3385 0.1052-0.0773 0-0.1551-0.0153-0.229-0.0459l-3.733-1.553-3.733 1.553c-0.1871 0.0778-0.3998 0.0555-0.5675-0.0593-0.1676-0.1148-0.2683-0.3071-0.2683-0.513v-6.616c-0.3451-0.4534-0.6269-0.9591-0.8315-1.504h-12.88c-1.226 0-2.224-1.017-2.224-2.267v-13.65c0-0.3415 0.2715-0.6183 0.6065-0.6183s0.6066 0.2768 0.6066 0.6183v13.65c0 0.5682 0.4532 1.03 1.011 1.03h12.56c-0.041-0.2828-0.0626-0.5717-0.0626-0.8657 0-0.2939 0.0216-0.5828 0.0626-0.8656h-7.866c-0.335 0-0.6065-0.2768-0.6065-0.6183 0-1.568-1.252-2.844-2.79-2.844-0.335 0-0.6065-0.2767-0.6065-0.6182v-15.17c0-0.3415 0.2715-0.6182 0.6065-0.6182 1.538 0 2.79-1.276 2.79-2.844 0-0.3415 0.2715-0.6182 0.6065-0.6182h27.17c0.335 0 0.6065 0.2768 0.6065 0.6182 0 1.568 1.252 2.844 2.79 2.844 0.335 0 0.6065 0.2768 0.6065 0.6182v1.767c0 0.3415-0.2715 0.6182-0.6065 0.6182-0.3347 0-0.6065-0.2768-0.6065-0.6182v-1.196c-1.723-0.2682-3.087-1.659-3.35-3.415h-26.05c-0.2628 1.756-1.628 3.147-3.35 3.415v14.02c1.723 0.2682 3.088 1.659 3.35 3.415h7.625c0.8324-2.214 2.939-3.792 5.401-3.792s4.568 1.577 5.401 3.792h7.625c0.2628-1.756 1.628-3.147 3.35-3.415v-9.945c0-0.3415 0.2715-0.6182 0.6065-0.6182s0.6065 0.2767 0.6065 0.6182v10.52c0 0.3415-0.2715 0.6182-0.6065 0.6182-1.538 0-2.79 1.276-2.79 2.844 0 0.3415-0.2715 0.6183-0.6065 0.6183h-7.866c0.041 0.2825 0.0626 0.5713 0.0626 0.8653 0 0.2943-0.0216 0.5832-0.0626 0.8657h12.56c0.5571 0 1.011-0.462 1.011-1.03v-24.73c0-0.5679-0.4532-1.03-1.011-1.03h-36.55c-0.5571 0-1.011 0.4623-1.011 1.03v8.207c0 0.3411-0.2716 0.6182-0.6066 0.6182s-0.6065-0.2771-0.6065-0.6182v-8.207c0-1.25 0.9975-2.267 2.224-2.267zm13.71 27.16c0 2.568 2.05 4.657 4.569 4.657s4.569-2.089 4.569-4.657-2.05-4.657-4.569-4.657-4.569 2.089-4.569 4.657z" fill="#242629"/>
	<path d="m38.39 8c0.3382 0 0.6123-0.2238 0.6123-0.5s-0.2741-0.5-0.6123-0.5h-10.78c-0.3382 0-0.6123 0.2238-0.6123 0.5s0.2741 0.5 0.6123 0.5z" fill="#d97a2d"/>
	<path d="m42.39 10h-18.79c-0.3354 0-0.6073 0.2238-0.6073 0.5s0.2719 0.5 0.6073 0.5h18.79c0.3354 0 0.6073-0.2238 0.6073-0.5s-0.2719-0.5-0.6073-0.5z" fill="#d97a2d"/>
	<path d="m42.39 13h-18.79c-0.3354 0-0.6073 0.2238-0.6073 0.5s0.2719 0.5 0.6073 0.5h18.79c0.3354 0 0.6073-0.2238 0.6073-0.5s-0.2719-0.5-0.6073-0.5z" fill="#d97a2d"/>
	<path d="m41.41 17h-2.824c-0.3249 0-0.5882 0.2238-0.5882 0.5s0.2633 0.5 0.5882 0.5h2.824c0.3249 0 0.5882-0.2238 0.5882-0.5s-0.2633-0.5-0.5882-0.5z" fill="#d97a2d"/>
	<path d="m23.59 17c-0.3249 0-0.5882 0.2238-0.5882 0.5s0.2633 0.5 0.5882 0.5h2.824c0.3249 0 0.5882-0.2238 0.5882-0.5s-0.2633-0.5-0.5882-0.5z" fill="#d97a2d"/>
	<path d="m29 27c0-1.654 1.346-3 3-3s3 1.346 3 3-1.346 3-3 3-3-1.346-3-3zm1.139 0c0 1.026 0.8347 1.861 1.861 1.861s1.861-0.8349 1.861-1.861c0-1.026-0.8347-1.861-1.861-1.861s-1.861 0.8347-1.861 1.861z" fill="#242629"/>
	<path d="m33 20c-1.103 0-2-0.8971-2-2s0.8971-2 2-2 2 0.8971 2 2-0.8971 2-2 2zm0-1.176c0.4542 0 0.8237-0.3695 0.8237-0.8237s-0.3695-0.8237-0.8237-0.8237-0.8237 0.3695-0.8237 0.8237 0.3695 0.8237 0.8237 0.8237z" fill="#d97a2d"/>
</svg>
