<svg width="52" height="39" viewBox="0 0 52 39" xmlns="http://www.w3.org/2000/svg">
<path d="M39 35C46.1797 35 52 29.1797 52 22C52 14.8203 46.1797 9 39 9C31.8203 9 26 14.8203 26 22C26 29.1797 31.8203 35 39 35Z" fill="#FF9448"/>
<path d="M34.0756 28.1586C34.2305 28.0037 34.4634 27.9574 34.6657 28.0413C34.868 28.1251 34.9999 28.3225 35 28.5414V34.4586C35 34.7576 34.7576 35 34.4586 35H28.5415C28.3225 35 28.125 34.8682 28.0413 34.6658C27.9574 34.4634 28.0037 34.2306 28.1586 34.0757L34.0756 28.1586ZM33.917 29.8486L29.8485 33.9172H33.917V29.8486Z" fill="#D97A2D"/>
<path d="M38.6466 18.3437C38.4327 18.2547 38.1866 18.3038 38.0228 18.4681L36.3084 20.188V8.49382C36.3084 8.17661 36.0521 7.91955 35.736 7.91955H31.3377L32.9343 6.31785L32.935 6.31708L34.4733 4.77377C34.8029 4.44311 34.9844 4.00325 34.9844 3.53558C34.9844 3.06791 34.8029 2.62821 34.4733 2.2974L32.6944 0.512758C32.3648 0.182102 31.9264 0 31.4602 0C30.994 0 30.5557 0.182102 30.226 0.512758L28.6869 2.05684L26.827 3.92263L22.843 7.91947H5.07457V2.23825C5.07457 1.92105 4.81825 1.66398 4.50214 1.66398C2.0197 1.66413 0 3.69017 0 6.18076V30.572C0 30.6144 0.004875 30.6557 0.0135586 30.6954C0.092625 31.7522 0.548361 32.734 1.31 33.4794C2.12413 34.276 3.19884 34.7147 4.33624 34.7147H21.8282L18.5338 38.0196C18.3701 38.1839 18.3212 38.4308 18.4098 38.6455C18.4983 38.8601 18.7071 39 18.9386 39H38.4276C38.7437 39 39 38.7429 39 38.4257V18.8742C39 18.642 38.8605 18.4325 38.6466 18.3437ZM31.0357 1.32499C31.2697 1.09009 31.6509 1.09009 31.8849 1.32499L33.6639 3.10971C33.8981 3.34454 33.8981 3.72685 33.6639 3.96176L32.5297 5.09976L29.9013 2.46299L31.0357 1.32499ZM31.72 5.91184L29.0917 3.27515L28.0415 4.32887L30.6697 6.96556L31.72 5.91184ZM37.8553 25.327H36.7992C36.483 25.327 36.2267 25.5841 36.2267 25.9013C36.2267 26.2185 36.483 26.4756 36.7992 26.4756H37.8553V28.2061H36.7992C36.483 28.2061 36.2267 28.4632 36.2267 28.7804C36.2267 29.0976 36.483 29.3547 36.7992 29.3547H37.8553V31.0851H36.7992C36.483 31.0851 36.2267 31.3422 36.2267 31.6594C36.2267 31.9766 36.483 32.2337 36.7992 32.2337H37.8553V33.9642H36.7992C36.483 33.9642 36.2267 34.2213 36.2267 34.5385C36.2267 34.8557 36.483 35.1127 36.7992 35.1127H37.8553V37.8517H20.3205L26.1026 32.0511C26.3261 31.8267 26.3261 31.4632 26.1026 31.2389C26.0769 31.2132 26.0493 31.1909 26.0205 31.171C25.7976 31.0179 25.4909 31.0404 25.2929 31.2389L22.9731 33.5663H4.33631C2.6002 33.5663 1.2026 32.2065 1.14761 30.468C1.15088 30.3588 1.15934 30.2506 1.17289 30.1437L1.17312 30.1418C1.17952 30.091 1.18721 30.0404 1.19597 29.9901L1.19902 29.9729C1.20702 29.9281 1.21601 29.8835 1.22583 29.839C1.22858 29.8266 1.23147 29.8142 1.23437 29.8019C1.24305 29.7643 1.25242 29.727 1.26247 29.6897C1.26796 29.6696 1.27367 29.6496 1.27954 29.6295C1.28791 29.6003 1.2966 29.5712 1.30581 29.5424C1.31503 29.5136 1.32486 29.4851 1.33484 29.4566L1.33698 29.4504C1.34319 29.4325 1.34939 29.4147 1.35609 29.3969C1.37003 29.3593 1.3848 29.3221 1.40004 29.2852L1.40422 29.2749L1.41314 29.2532C1.43272 29.2073 1.45305 29.162 1.47454 29.1172L1.4772 29.1115C1.92494 28.182 2.78606 27.4889 3.81949 27.2739L3.82817 27.272C3.87555 27.2623 3.92338 27.254 3.97153 27.2462C3.97494 27.2457 3.97836 27.2451 3.9818 27.2445C3.98639 27.2436 3.99101 27.2428 3.99567 27.2421C4.03917 27.2355 4.08312 27.2303 4.12707 27.2253L4.14315 27.2233C4.15011 27.2224 4.15708 27.2215 4.16409 27.2208C4.20652 27.2165 4.24932 27.2137 4.29213 27.211L4.31019 27.2096C4.31773 27.209 4.32527 27.2084 4.33281 27.208C4.38887 27.2052 4.44539 27.2037 4.50214 27.2037C4.81825 27.2037 5.07457 26.9467 5.07457 26.6295V22.4656C5.07457 22.1484 4.81825 21.8913 4.50214 21.8913C4.18603 21.8913 3.92971 22.1484 3.92971 22.4656V26.0913C2.96309 26.214 2.06586 26.6465 1.35837 27.3396C1.28395 27.4125 1.21342 27.4883 1.14471 27.5654V6.18076C1.14471 4.51937 2.35021 3.13493 3.92963 2.86151V8.49382V20.1686V20.1686C3.92963 20.4858 4.18595 20.7429 4.50206 20.7429C4.81818 20.7429 5.07449 20.4858 5.07449 20.1686V20.1686V9.06809H21.6982L18.5338 12.2428C18.3102 12.4671 18.3102 12.8306 18.5338 13.0549C18.7573 13.2791 19.1198 13.2791 19.3432 13.0549L23.4849 8.8999L23.4853 8.89952L27.2318 5.14095L29.86 7.77772L29.5516 8.08705L29.5509 8.08774L18.0087 19.6672L15.3805 17.0305L17.6556 14.7481C17.8791 14.5237 17.8791 14.1602 17.6556 13.9359C17.432 13.7117 17.0696 13.7117 16.8461 13.9359L14.1661 16.6244C14.1518 16.6388 14.1384 16.654 14.1258 16.6696C14.123 16.6731 14.1203 16.6769 14.1177 16.6806L14.114 16.6858C14.1059 16.6966 14.098 16.7074 14.0906 16.7187C14.0864 16.7253 14.0826 16.732 14.0786 16.7388C14.0723 16.7495 14.0662 16.7604 14.0606 16.7715C14.0595 16.7736 14.0585 16.7758 14.0574 16.778C14.055 16.7831 14.0527 16.7882 14.0504 16.7934C14.0453 16.8046 14.0405 16.8161 14.0362 16.8275L14.0344 16.8318L14.0339 16.8331C14.0329 16.8352 14.032 16.8373 14.0312 16.8395L12.916 20.0089L12.1557 22.1699C12.1456 22.1986 12.1384 22.2278 12.133 22.2572H10.2293C9.91316 22.2572 9.65684 22.5143 9.65684 22.8315C9.65684 23.1487 9.91316 23.4057 10.2293 23.4057H26.0817C26.3979 23.4057 26.6541 23.1487 26.6541 22.8315C26.6541 22.5143 26.3979 22.2572 26.0817 22.2572H14.7083L18.1992 21.0209L18.2029 21.0194L18.2077 21.0173C18.2213 21.0123 18.2346 21.0066 18.2478 21.0006L18.2531 20.9982L18.2634 20.9933C18.2771 20.9865 18.2906 20.9789 18.3039 20.9708L18.3093 20.9676L18.3167 20.9632C18.3305 20.9543 18.3439 20.9446 18.3571 20.9343C18.3604 20.9318 18.3638 20.9296 18.367 20.927C18.3829 20.9142 18.3986 20.9003 18.4133 20.8855L30.1929 9.06817H35.1635V21.3366L26.9753 29.5512C26.7517 29.7756 26.7517 30.1391 26.9753 30.3634C26.9892 30.3773 27.0038 30.3905 27.0188 30.4028C27.1237 30.4886 27.2519 30.5316 27.3801 30.5316C27.5082 30.5316 27.6364 30.4886 27.7413 30.4028C27.7563 30.3906 27.7709 30.3773 27.7848 30.3634L27.7851 30.3631L37.8553 20.2604V25.327ZM15.322 20.8217L16.9617 20.241L14.8084 18.0808L14.2296 19.7257L15.322 20.8217Z" fill="#242629"/>
</svg>
