<svg width="42" height="44" version="1.1" viewBox="0 0 42 44" xmlns="http://www.w3.org/2000/svg">
	<path d="m29 36c7.18 0 13-5.82 13-13s-5.82-13-13-13-13 5.82-13 13 5.82 13 13 13z" fill="#ff9448"/>
	<path d="m14.95 17c-0.2083 0-0.4031 0.1097-0.5215 0.291l-2.523 3.859c-0.1995 0.3048-0.1276 0.7229 0.1602 0.9336 0.2881 0.2107 0.6833 0.1345 0.8828-0.1699l2.334-3.572h3.434l5.439 8.318h-14.31l1.439-2.195c0.1998-0.3041 0.1296-0.7203-0.1582-0.9316l2e-3 -2e-3c-0.2875-0.2114-0.6833-0.1341-0.8828 0.1699l-2.131 3.246c-0.1344 0.2051-0.1505 0.4724-0.04102 0.6934 0.1092 0.2214 0.3243 0.3594 0.5605 0.3594h16.73c0.2358 0 0.453-0.1387 0.5625-0.3594 0.1096-0.221 0.09338-0.4883-0.04102-0.6934l-6.316-9.656c-0.1184-0.1813-0.3136-0.291-0.5215-0.291zm2.047 2.002c-0.5524 0-1 0.4476-1 1s0.4476 1 1 1 1-0.4476 1-1-0.4476-1-1-1zm-2.5 3c-0.2762 0-0.5 0.2238-0.5 0.5s0.2238 0.5 0.5 0.5 0.5-0.2238 0.5-0.5-0.2238-0.5-0.5-0.5zm4.5 2c-0.5524 0-1 0.4479-1 1s0.4476 1 1 1 1-0.4477 1-1-0.4476-1-1-1z" fill="#d97a2d"/>
	<path d="m32.35 42.7h-2.374l-2.835-8.768c0.3349-0.0241 0.5995-0.3048 0.5995-0.6485v-2.768c0.5739-0.191 1.062-0.5985 1.353-1.157 0.4106-0.7886 0.353-1.734-0.15-2.466l-7.77-11.31c-0.3257-0.4737-0.4976-1.029-0.4976-1.605v-9.2h0.2156c0.8315 0 1.508-0.6814 1.508-1.519v-1.736c0-0.8372-0.6766-1.519-1.508-1.519h-8.788c-0.8315 0-1.508 0.6815-1.508 1.519v1.736c0 0.8372 0.6762 1.519 1.508 1.519h0.2153v1.139c0 0.3595 0.2893 0.6509 0.6463 0.6509 0.3569 0 0.6462-0.2914 0.6462-0.6509v-1.139h5.773v9.2c0 0.8419 0.2516 1.653 0.7272 2.345l7.77 11.31c0.232 0.338 0.2576 0.7569 0.068 1.121-0.1893 0.3639-0.5459 0.5811-0.9539 0.5811h-21c-0.4079 0-0.7646-0.2172-0.9539-0.5811s-0.164-0.7828 0.06832-1.121l7.77-11.31c0.4756-0.6922 0.7269-1.503 0.7269-2.345v-5.035c0-0.3595-0.2893-0.6509-0.6462-0.6509-0.357 0-0.6463 0.2914-0.6463 0.6509v5.035c0 0.576-0.1719 1.131-0.4972 1.605l-7.771 11.31c-0.5029 0.7322-0.5606 1.677-0.15 2.466 0.2903 0.5586 0.7789 0.9661 1.353 1.157v2.768c0 0.3437 0.2643 0.6244 0.5996 0.6485l-2.835 8.768h-2.374c-0.3569 0-0.6462 0.2914-0.6462 0.6509s0.2893 0.6509 0.6462 0.6509h31.71c0.3569 0 0.6462-0.2914 0.6462-0.6509s-0.2893-0.6509-0.6462-0.6509zm-19.39-39.23h-0.8616c-0.1189 0-0.2156-0.09736-0.2156-0.2172v-1.736c0-0.1195 0.0967-0.2169 0.2156-0.2169h8.788c0.1189 0 0.2156 0.09735 0.2156 0.2169v1.736c0 0.1195-0.0967 0.2169-0.2156 0.2169zm2.678 29.81c0-0.3595 0.2893-0.6509 0.6463-0.6509h10.16v-1.996h-19.9v1.996h6.728c0.3566 0 0.6463 0.2914 0.6463 0.6509s-0.2897 0.6509-0.6463 0.6509h-2.788l-2.834 8.765h4.988c-0.1153-0.8255-0.173-1.672-0.055-2.482 0.5656-3.87 3.556-5.064 3.683-5.113 0.1486-0.0574 0.313-0.0574 0.4616 0 0.127 0.049 3.117 1.243 3.683 5.113 0.1183 0.8091 0.0603 1.656-0.055 2.482h4.988l-2.834-8.765h-6.22c-0.357 0-0.6463-0.2914-0.6463-0.6509zm-11.27 9.416 2.834-8.765h1.915l-2.834 8.765zm11.38-0.5314c-0.0217 0.1494-0.024 0.3172-0.0047 0.5314h1.484c0.019-0.2142 0.017-0.382-5e-3 -0.5314-0.1037-0.7087-0.4833-1.097-0.7379-1.283-0.252 0.1843-0.6329 0.5727-0.7369 1.283zm2.775 0.5314c0.0156-0.2394 0.013-0.4814-0.022-0.7211-0.2693-1.843-1.723-2.423-1.785-2.447-0.1486-0.0574-0.313-0.0574-0.4616 0-0.0617 0.0239-1.516 0.604-1.785 2.447-0.035 0.2397-0.0376 0.4817-0.022 0.7211h-0.5142c-0.1483-0.998-0.1713-1.685-0.0827-2.292 0.3733-2.554 2.018-3.65 2.635-3.976 0.6193 0.3277 2.262 1.424 2.635 3.976 0.0887 0.6069 0.0657 1.294-0.0827 2.292zm5.333-8.765 2.835 8.765h1.915l-2.834-8.765z" fill="#242629" fill-rule="evenodd"/>
</svg>
