<svg width="20" height="20" viewBox="0 0 20 20" xmlns="http://www.w3.org/2000/svg">
	<path d="m19.32 2.945c-0.2962-0.2902-0.7768-0.2907-1.073-0.00123l-9.104 8.88-3.285-3.489c-0.2838-0.3013-0.7637-0.3208-1.072-0.0433-0.3084 0.2776-0.3281 0.7471-0.04429 1.049l3.82 4.057c0.1399 0.1487 0.3356 0.235 0.5421 0.2392 0.00554 3e-4 0.01089 3e-4 0.0162 3e-4 0.2006 0 0.3936-0.078 0.5357-0.2165l9.663-9.425c0.297-0.2894 0.2975-0.7594 0.0015-1.05z"/>
	<path d="m19.25 9.246c-0.4163 0-0.7537 0.3374-0.7537 0.7538 0 4.683-3.81 8.492-8.492 8.492-4.683 0-8.492-3.81-8.492-8.492 0-4.683 3.81-8.492 8.492-8.492 0.4163 0 0.7538-0.3374 0.7538-0.7538 0-0.4164-0.3375-0.7538-0.7538-0.7538-5.514 0-10 4.486-10 10 0 5.514 4.486 10 10 10 5.514 0 10-4.486 10-10 0-0.4163-0.3374-0.7538-0.7538-0.7538z" fill="#ef8031"/>
</svg>
