<svg width="35.96" height="38.69" viewBox="0 0 35.96 38.69" xmlns="http://www.w3.org/2000/svg">
	<path d="m23.46 25c6.904 0 12.5-5.596 12.5-12.5 0-6.904-5.596-12.5-12.5-12.5s-12.5 5.596-12.5 12.5c0 6.904 5.596 12.5 12.5 12.5z" fill="#ff9448"/>
	<path d="m22.55 33.3 0.0014-0.0019c0.0092-0.0122 0.0184-0.0246 0.0268-0.0375 0.0017-0.0027 0.0033-0.0055 0.0049-0.0083l0.0039-0.0067c0.0094-0.0151 0.0186-0.0304 0.0269-0.0464l0.0026-0.0055 0.0022-0.0048c0.0088-0.0178 0.0173-0.0357 0.0248-0.0543 9e-4 -0.0021 0.0015-0.0045 0.0024-0.0067 0.0077-0.0197 0.0148-0.0397 0.0208-0.0602l0.0019-0.0074c0.0057-0.0202 0.0109-0.0406 0.0149-0.0615 7e-4 -0.0034 0.0011-0.0068 0.0016-0.0102l0.0012-0.0083 4e-4 -0.0026c0.0027-0.0164 0.0055-0.0328 0.0071-0.0496 0.0023-0.0241 0.0035-0.0483 0.0035-0.0727v-25.65c0-0.4023-0.3156-0.7286-0.7048-0.7286h-21.29c-0.3892 0-0.7048 0.3263-0.7048 0.7286v30.75c0 0.4023 0.3156 0.7285 0.7048 0.7285h16.35c0.0237 0 0.0471-0.0012 0.0704-0.0036 0.0167-0.0017 0.033-0.0046 0.0493-0.0076l0.0021-4e-4c0.0025-4e-4 0.0049-7e-4 0.0074-0.0011 0.0032-4e-4 0.0064-9e-4 0.0096-0.0015 0.0202-0.0043 0.0399-0.0096 0.0595-0.0155l0.0036-9e-4 0.0035-1e-3c0.0198-0.0063 0.0392-0.0136 0.0583-0.0216l0.0032-0.0012 0.0033-0.0012c0.018-0.0078 0.0353-0.0165 0.0525-0.0257 0.0033-0.0017 0.0067-0.0031 0.01-0.0049 0.0155-0.0087 0.0304-0.0182 0.0452-0.028 0.0047-0.0031 0.0095-0.0057 0.0141-0.0089 0.0123-0.0084 0.0239-0.0178 0.0355-0.0271l0.0028-0.0022c0.0057-0.0046 0.0117-0.0086 0.0172-0.0133 0.0129-0.0109 0.0251-0.0228 0.0371-0.0348 0.0045-0.0044 0.0094-0.0084 0.0138-0.0129l4.934-5.1c0.0024-0.0026 0.0047-0.0052 0.0069-0.0079l0.0056-0.0064c0.0114-0.0126 0.0229-0.025 0.0336-0.0383 0.0019-0.0024 0.0036-0.0048 0.0053-0.0072 0.0026-0.0036 0.0051-0.0073 0.0077-0.0108zm-21.14-25.36h19.88v24.19h-4.229c-0.3892 0-0.7048 0.3263-0.7048 0.7286v4.372h-14.94zm16.35 28.26 2.527-2.612h-2.527z"/>
	<path d="m8.185 23.06c-0.3072-0.2469-0.7501-0.1899-0.9891 0.1278l-1.818 2.417-0.7112-0.5834c-0.305-0.2502-0.7483-0.1975-0.9903 0.1177-0.242 0.3152-0.1909 0.7735 0.1139 1.024l1.269 1.041c0.1252 0.1027 0.2799 0.1578 0.4382 0.1578 0.02792 0 0.05597-0.0016 0.08395-0.0051 0.1868-0.0232 0.3569-0.1226 0.4724-0.2761l2.255-2.998c0.239-0.3176 0.1837-0.7753-0.1236-1.022z" fill="#ef8030"/>
	<path d="m8.185 17.96c-0.3072-0.2469-0.7501-0.1898-0.9891 0.1278l-1.818 2.417-0.7112-0.5834c-0.305-0.2503-0.7483-0.1975-0.9903 0.1177-0.242 0.3152-0.1909 0.7735 0.1139 1.024l1.269 1.041c0.1252 0.1027 0.2799 0.1578 0.4382 0.1578 0.02792 0 0.05597-0.0016 0.08395-0.0051 0.1868-0.0232 0.3569-0.1226 0.4724-0.2761l2.255-2.998c0.239-0.3176 0.1837-0.7753-0.1236-1.022z" fill="#ef8030"/>
	<path d="m8.185 12.86c-0.3072-0.2469-0.7501-0.1899-0.9891 0.1278l-1.818 2.417-0.7112-0.5834c-0.305-0.2502-0.7483-0.1975-0.9903 0.1177-0.242 0.3152-0.1909 0.7735 0.1139 1.024l1.269 1.041c0.1252 0.1028 0.2799 0.1579 0.4382 0.1579 0.02792 0 0.05597-0.0017 0.08395-0.0051 0.1868-0.0232 0.3569-0.1227 0.4724-0.2761l2.255-2.998c0.239-0.3176 0.1837-0.7754-0.1236-1.022z" fill="#ef8030"/>
	<path d="m9.867 15.66h7.894c0.3892 0 0.7048-0.3262 0.7048-0.7285 0-0.4024-0.3156-0.7286-0.7048-0.7286h-7.894c-0.3892 0-0.7048 0.3262-0.7048 0.7286 0 0.4023 0.3156 0.7285 0.7048 0.7285z"/>
	<path d="m9.867 20.76h7.894c0.3892 0 0.7048-0.3263 0.7048-0.7286 0-0.4024-0.3156-0.7286-0.7048-0.7286h-7.894c-0.3892 0-0.7048 0.3262-0.7048 0.7286 0 0.4023 0.3156 0.7286 0.7048 0.7286z"/>
	<path d="m17.76 25.86c0.3892 0 0.7048-0.3262 0.7048-0.7286 0-0.4023-0.3156-0.7286-0.7048-0.7286h-7.894c-0.3892 0-0.7048 0.3263-0.7048 0.7286 0 0.4024 0.3156 0.7286 0.7048 0.7286z"/>
</svg>
