<svg width="40" height="51.09" version="1.1" viewBox="0 0 40 51.09" xmlns="http://www.w3.org/2000/svg">
	<path d="m27 26c7.18 0 13-5.82 13-13s-5.82-13-13-13-13 5.82-13 13 5.82 13 13 13z" fill="#ff9448"/>
	<path d="m27.39 41.99c-0.336 0-0.6085 0.2752-0.6085 0.6145v5.777c0 0.187-0.1507 0.3393-0.3359 0.3393h-3.271v-12.1c0-0.3393-0.2725-0.6145-0.6085-0.6145-0.3361 0-0.6085 0.2752-0.6085 0.6145v12.1h-6.587l1.91-2.122c0.2086-0.2319 0.3071-0.5621 0.2632-0.8838-8e-4 -0.0062-0.0018-0.0124-0.0029-0.0187l-1.819-10.85 0.4901-0.7451c0.0289 0.0208 0.0571 0.0414 0.085 0.0618 0.2326 0.1704 0.4365 0.3197 0.7862 0.3197 0.3982 0 0.7705-0.2251 0.9537-0.5956v-1e-4l1.919-3.884 4.371 1.71c0.1581 0.0685 2.454 1.113 2.454 3.87v4.156c-1e-4 0.3393 0.2723 0.6145 0.6085 0.6145 0.336 0 0.6085-0.2751 0.6085-0.6145v-4.156c0-3.633-3.081-4.954-3.212-5.008l-0.0116-0.0046-7.275-2.845v-1.723c1.156-0.9074 1.957-2.253 2.158-3.787 0.5762-0.041 1.111-0.2583 1.547-0.6374 0.5702-0.4951 0.8973-1.216 0.8973-1.977 0-0.6315-0.2257-1.234-0.6277-1.704v-2.276c-1e-4 -4.199-3.383-7.616-7.542-7.616-4.158 0-7.542 3.416-7.542 7.616v2.336c-0.4064 0.4652-0.6274 1.038-0.6274 1.645 0 0.7613 0.327 1.482 0.8973 1.977 0.4362 0.3789 0.9705 0.5959 1.546 0.637 0.2028 1.564 1.027 2.959 2.281 3.879v1.632l-7.267 2.845-0.01144 0.0046c-0.1312 0.0545-3.212 1.375-3.212 5.008v12.8c0 0.8648 0.6967 1.568 1.553 1.568h5.798c0.3361 0 0.6085-0.2752 0.6085-0.6145 0-0.3394-0.2724-0.6145-0.6085-0.6145h-1.309v-12.1c0-0.3393-0.2724-0.6145-0.6085-0.6145s-0.6085 0.2752-0.6085 0.6145v12.1h-3.271c-0.1852 0-0.336-0.1523-0.336-0.3393v-12.8c0-2.767 2.312-3.809 2.454-3.87l4.368-1.71 1.919 3.884c0.1836 0.3714 0.5564 0.5957 0.9538 0.5957 0.349 0 0.5513-0.1479 0.7873-0.3205 0.0274-0.0201 0.0553-0.0405 0.084-0.061l0.4901 0.7451-1.819 10.85c-0.0011 0.0062-2e-3 0.0123-0.0029 0.0185-0.0439 0.3215 0.0545 0.652 0.2632 0.884l1.91 2.122h-2.434c-0.3361 0-0.6085 0.2752-0.6085 0.6145 0 0.3394 0.2724 0.6145 0.6085 0.6145h16.26c0.8564 0 1.553-0.7036 1.553-1.568v-5.777c-2e-4 -0.3394-0.2726-0.6146-0.6087-0.6146zm-8.574-12.44-1.789 3.621-0.1421-0.1019c-0.3114-0.2234-1.095-0.7853-2.009-1.441l0.2496-0.3112 1.96-2.443zm-4.061 4.537 0.4639-0.7052-1.223-0.8769-1.223 0.8769 0.4639 0.7052zm-3.049-6.171v-1.15c0.7393 0.3009 1.529 0.4404 2.301 0.4404 0.7978 0 1.58-0.1717 2.276-0.479v1.194l-2.286 2.85zm8.706-7.278c0.301-0.2615 0.4736-0.6424 0.4737-1.045 0-0.6708-0.4771-1.257-1.176-1.371v2.743c0.2632-0.0433 0.5036-0.1538 0.7027-0.3267zm-12.25 0.3267c-0.7073-0.116-1.176-0.7065-1.176-1.372 0-0.6569 0.5393-1.192 1.176-1.34zm-0.5489-3.832c0.1656-0.0568 0.3877-0.1098 0.5816-0.1323 0.1283-0.5145 0.605-0.8626 1.128-0.8231 2.386 0.1731 4.972-0.5295 7.092-1.928 0.4447-0.2934 1.029-0.2131 1.382 0.1702 0.298 0.3235 0.5496 0.5941 0.7621 0.8226h1e-4c0.8634 0.9284 1.081 1.162 1.135 1.429 0.0183 0.0896 0.0183 0.183 0.0183 0.3079v0.0047c0.1883 0.0168 0.3718 0.0527 0.5487 0.1071v-1.478c0-3.522-2.837-6.387-6.324-6.387s-6.324 2.865-6.324 6.387zm1.766 4.316v-4.036c2.627 0.1554 5.381-0.6327 7.605-2.072 0.2976 0.3227 0.5491 0.5936 0.7577 0.8181l3e-4 4e-4c0.4085 0.4399 0.652 0.7021 0.7538 0.8283v4.46c0 2.495-2.014 4.529-4.485 4.529-2.774 1e-4 -4.632-2.173-4.632-4.529zm-0.1975 8.102 1.789 3.621 0.0484-0.0347c0.2247-0.1612 1.08-0.7746 2.1-1.507l-2.21-2.755z" clip-rule="evenodd" fill-rule="evenodd"/>
	<path d="m12.39 34.25-2.193 12.28 0.2559 0.2754 4.008 4.291 4.35-4.564-2.291-12.28z" fill="#d97a2d" fill-rule="evenodd" />
	<path d="m13.64 35.75h1.627l1.92 10.3-2.723 2.857-2.664-2.857z" clip-rule="evenodd" color="#000000" color-rendering="auto" dominant-baseline="auto" fill="#fff" />
</svg>
