<svg width="62" height="51" viewBox="0 0 62 51" fill="none" xmlns="http://www.w3.org/2000/svg">
<path fill-rule="evenodd" clip-rule="evenodd" d="M13 47C20.1797 47 26 41.1797 26 34C26 26.8203 20.1797 21 13 21C5.8203 21 0 26.8203 0 34C0 41.1797 5.8203 47 13 47Z" fill="#FF9448"/>
<path d="M27.2922 36H22.7078C22.3166 36 22 36.4479 22 37C22 37.5521 22.3166 38 22.7078 38H27.2922C27.6834 38 28 37.5521 28 37C28 36.4479 27.6834 36 27.2922 36Z" fill="black"/>
<path fill-rule="evenodd" clip-rule="evenodd" d="M61.3604 49.7251H61.2208C60.5103 49.6529 59.9692 49.0576 59.9684 48.3459V40.1727C59.9655 37.7781 58.0172 35.8378 55.6128 35.8349H49.5851V16.0047C49.5851 15.6544 49.3001 15.371 48.9488 15.371C48.4223 15.364 47.9086 15.5327 47.4889 15.8496L47.4885 15.8499C47.2447 16.0131 47.0976 16.1116 46.7399 16.1116C46.3824 16.1116 46.2349 16.013 45.9913 15.8496C45.1234 15.2113 43.9394 15.2113 43.0715 15.8496L43.0711 15.8499C42.8274 16.0131 42.6803 16.1116 42.3229 16.1116C41.965 16.1116 41.8179 16.013 41.5744 15.8496C40.7069 15.2113 39.5225 15.2113 38.655 15.8496L38.6537 15.8504C38.4105 16.0133 38.2637 16.1116 37.9064 16.1116C37.5485 16.1116 37.4014 16.013 37.1578 15.8496C36.9701 15.7155 36.7672 15.6041 36.5534 15.5183V2.63101C36.5517 1.17832 35.3698 0.00123774 33.9112 0H15.6414C14.1832 0.00165031 13.0017 1.17874 13 2.63101V38.5769C13.0017 40.0291 14.1832 41.2062 15.6414 41.2079H30.6459V41.3997C30.6484 43.6281 32.4616 45.4339 34.6991 45.4368C34.8164 45.4368 34.9323 45.4306 35.0467 45.4207H44.0351V46.6556C44.038 49.0502 45.9863 50.9905 48.3908 50.9934H61.1669C61.2307 50.9979 61.2949 51 61.3604 51C61.7137 51 62 50.7149 62 50.363C62 50.0111 61.7137 49.726 61.3604 49.726V49.7251ZM31.2822 15.371C30.9305 15.371 30.6459 15.6544 30.6459 16.0047V33.4613H14.2726V5.48316H35.2799V15.4024C34.9025 15.4675 34.5454 15.6202 34.2384 15.8488C33.9949 16.0126 33.8478 16.1112 33.4899 16.1112C33.1323 16.1112 32.9853 16.0126 32.7417 15.8488C32.322 15.5323 31.8083 15.364 31.2822 15.371ZM33.9112 1.26744H15.6414C14.8858 1.26826 14.2735 1.87847 14.2726 2.63101V4.21572H35.2799V2.63101C35.2791 1.87847 34.6668 1.26826 33.9112 1.26744ZM15.6414 39.9404C14.8858 39.9396 14.2735 39.3298 14.2726 38.5769V34.7288H30.6459V39.9404H15.6414ZM31.9185 16.8262V41.3997C31.9123 42.3932 32.4409 43.3141 33.3038 43.8125C34.1668 44.3109 35.2315 44.3109 36.0944 43.8125C36.9573 43.3141 37.4859 42.3932 37.4797 41.3997V39.7329C37.4822 37.5813 39.2333 35.8373 41.3937 35.8349C41.4215 35.8349 41.4492 35.8353 41.4766 35.8357C41.4808 35.8354 41.485 35.8352 41.4893 35.8351L41.4916 35.835L41.5101 35.8349H48.3125V16.8262C48.2769 16.8489 48.2396 16.8736 48.1998 16.9004C47.3319 17.5383 46.1479 17.5383 45.28 16.9004C45.0364 16.7366 44.8889 16.638 44.5314 16.638C44.1737 16.638 44.027 16.7365 43.7833 16.9001L43.7828 16.9004C42.9149 17.5383 41.731 17.5383 40.8631 16.9004C40.6195 16.7366 40.4724 16.638 40.1145 16.638C39.757 16.638 39.6099 16.7366 39.3659 16.9004C38.4984 17.5383 37.3144 17.5383 36.4465 16.9004C36.2029 16.7366 36.0554 16.638 35.6979 16.638C35.341 16.638 35.1943 16.7363 34.951 16.8992L34.9497 16.9C34.0823 17.5383 32.8979 17.5383 32.0304 16.9C31.991 16.874 31.9542 16.8493 31.9185 16.8262ZM37.6591 44.1533C38.3621 43.4073 38.7528 42.4229 38.7523 41.3997V39.7329C38.7615 38.2864 39.9417 37.1188 41.3937 37.1188C42.8462 37.1188 44.026 38.2864 44.0351 39.7329V44.1533H37.6591ZM45.3078 46.6551C45.3098 48.35 46.6889 49.7235 48.3908 49.7251H59.0848C58.8296 49.3101 58.6954 48.8327 58.6958 48.3459V40.1727C58.6941 38.4778 57.3146 37.104 55.6128 37.1023H44.2795C44.9416 37.8198 45.3086 38.7588 45.3078 39.7329V46.6551Z" fill="black"/>
<path d="M37 23C37 23.5521 37.2958 24 37.6613 24H46.3387C46.7038 24 47 23.5521 47 23C47 22.4479 46.7038 22 46.3387 22H37.6613C37.2958 22 37 22.4479 37 23Z" fill="#FF9448"/>
<path d="M34.4848 24H35.5152C35.7829 24 36 23.5521 36 23C36 22.4479 35.7829 22 35.5152 22H34.4848C34.2171 22 34 22.4479 34 23C34 23.5521 34.2171 24 34.4848 24Z" fill="#FF9448"/>
<path d="M46.3387 26H37.6613C37.2958 26 37 26.4473 37 27C37 27.5521 37.2958 28 37.6613 28H46.3387C46.7038 28 47 27.5521 47 27C47 26.4473 46.7038 26 46.3387 26V26Z" fill="#FF9448"/>
<path d="M34.4848 28H35.5152C35.7829 28 36 27.5521 36 27C36 26.4473 35.7829 26 35.5152 26H34.4848C34.2171 26 34 26.4473 34 27C34 27.5521 34.2171 28 34.4848 28Z" fill="#FF9448"/>
<path d="M46.3387 30H37.6613C37.2958 30 37 30.4479 37 31C37 31.5521 37.2958 32 37.6613 32H46.3387C46.7038 32 47 31.5521 47 31C47 30.4479 46.7038 30 46.3387 30Z" fill="#FF9448"/>
<path d="M36 31C36 30.4479 35.7829 30 35.5152 30H34.4848C34.2171 30 34 30.4479 34 31C34 31.5521 34.2171 32 34.4848 32H35.5152C35.7829 32 36 31.5521 36 31Z" fill="#FF9448"/>
<path d="M34.6146 21H40.3854C40.7251 21 41 20.5521 41 20C41 19.4473 40.7251 19 40.3854 19H34.6146C34.2753 19 34 19.4473 34 20C34 20.5521 34.2753 21 34.6146 21Z" fill="#FF9448"/>
<path d="M49.0003 41.142C49.4266 41.1424 49.7718 41.5146 49.7726 41.9736C49.7726 42.3384 50.0471 42.6344 50.3863 42.6344C50.7251 42.6344 51 42.3384 51 41.9736C50.9988 41.0396 50.439 40.2128 49.614 39.925V39.6608C49.614 39.2956 49.3391 39 49.0003 39C48.661 39 48.3865 39.2956 48.3865 39.6608V39.925C47.4492 40.2498 46.8714 41.2612 47.0245 42.3083C47.1771 43.3559 48.0158 44.1272 49.0003 44.1268C49.4266 44.1238 49.7746 44.4934 49.7774 44.9528C49.7802 45.4119 49.437 45.7866 49.0102 45.7896C49.007 45.7896 49.0038 45.7896 49.0003 45.7896C48.9967 45.7896 48.9935 45.7896 48.9899 45.7896C48.5675 45.7836 48.2279 45.4136 48.2275 44.9588C48.2275 44.5936 47.9526 44.298 47.6138 44.298C47.2746 44.298 47.0001 44.5936 47.0001 44.9588C47.0013 45.8928 47.5607 46.7197 48.3861 47.0071V47.3392C48.3861 47.704 48.661 48 48.9999 48C49.3387 48 49.6136 47.704 49.6136 47.3392V47.0071C50.5505 46.6823 51.1283 45.6708 50.9756 44.6237C50.8226 43.5766 49.9843 42.8052 48.9999 42.8052C48.721 42.8104 48.4613 42.6529 48.3206 42.3935C48.1796 42.1341 48.1796 41.8136 48.3206 41.5542C48.4613 41.2947 48.721 41.1373 48.9999 41.1424L49.0003 41.142Z" fill="black"/>
<path d="M55.4774 45H53.5226C53.2341 45 53 45.4479 53 46C53 46.5527 53.2341 47 53.5226 47H55.4774C55.7659 47 56 46.5527 56 46C56 45.4479 55.7659 45 55.4774 45Z" fill="black"/>
<path d="M55.4774 42H53.5226C53.2341 42 53 42.4479 53 43C53 43.5521 53.2341 44 53.5226 44H55.4774C55.7659 44 56 43.5521 56 43C56 42.4479 55.7659 42 55.4774 42Z" fill="black"/>
<path d="M55.4774 39H53.5226C53.2341 39 53 39.4479 53 40C53 40.5527 53.2341 41 53.5226 41H55.4774C55.7659 41 56 40.5527 56 40C56 39.4479 55.7659 39 55.4774 39Z" fill="black"/>
</svg>
