<svg width="52.2" height="41.6" viewBox="0 0 52.2 41.6" xmlns="http://www.w3.org/2000/svg">
	<path d="m29.2 9.8c0-3.067 0.9333-5.467 2.8-7.2 2-1.733 4.533-2.6 7.6-2.6 3.733 0 6.733 1.2 9 3.6 2.4 2.267 3.6 5.733 3.6 10.4 0 4.4-0.6667 8.2-2 11.4-1.2 3.2-2.733 5.867-4.6 8-1.733 2.267-3.6 4.067-5.6 5.4s-3.733 2.267-5.2 2.8l-5-6.8c3.067-1.6 5.467-3.6 7.2-6s2.6-5.533 2.6-9.4c-0.5333 0.1333-1.267 0.2-2.2 0.2-2.533 0-4.533-0.8667-6-2.6-1.467-1.867-2.2-4.267-2.2-7.2zm-29.2 0c0-3.067 0.9333-5.467 2.8-7.2 2-1.733 4.533-2.6 7.6-2.6 3.733 0 6.733 1.2 9 3.6 2.4 2.267 3.6 5.733 3.6 10.4 0 4.4-0.6667 8.2-2 11.4-1.2 3.2-2.733 5.867-4.6 8-1.733 2.267-3.6 4.067-5.6 5.4-2 1.333-3.733 2.267-5.2 2.8l-5-6.8c3.067-1.6 5.467-3.6 7.2-6s2.6-5.533 2.6-9.4c-0.5333 0.1333-1.267 0.2-2.2 0.2-2.533 0-4.533-0.8667-6-2.6-1.467-1.867-2.2-4.267-2.2-7.2z" fill="#d97a2d" fill-opacity=".1"/>
</svg>
