<svg width="19.65" height="18.18" viewBox="0 0 19.65 18.18" xmlns="http://www.w3.org/2000/svg">
	<path d="m7.561 0c-0.2295-0.01604-0.4317 0.1979-0.4512 0.4766l-0.1621 2.316c-0.01949 0.2787 0.1514 0.5172 0.3809 0.5332 0.2295 0.01604 0.4317-0.1979 0.4512-0.4766l0.1621-2.314c0.01949-0.2787-0.1514-0.5191-0.3809-0.5352zm-4.27 2.209c-0.1218-0.008515-0.2463 0.02883-0.3457 0.1152-0.1988 0.1728-0.2197 0.4731-0.04688 0.6719l1.434 1.65c0.1728 0.1988 0.4754 0.2197 0.6738 0.04688 0.1988-0.1728 0.2197-0.4731 0.04688-0.6719l-1.436-1.65c-0.0864-0.09939-0.2044-0.1536-0.3262-0.1621zm9.023 0.6309c-0.1217-0.00851-0.2463 0.02883-0.3457 0.1152l-1.652 1.436c-0.1988 0.1728-0.2197 0.4731-0.04688 0.6719s0.475 0.2197 0.6738 0.04688l1.65-1.434c0.1988-0.1728 0.2197-0.475 0.04688-0.6738-0.0864-0.09939-0.2045-0.1536-0.3262-0.1621zm-11.78 3.354c-0.2787-0.01949-0.5191 0.1494-0.5352 0.3789-0.01605 0.2295 0.1978 0.4317 0.4766 0.4512l2.316 0.1621c0.279 0.01951 0.5172-0.1514 0.5332-0.3809 0.01605-0.2295-0.1975-0.4297-0.4766-0.4492l-2.314-0.1621zm7.02 0.03125c-0.3219-0.0539-0.6616 0.01597-0.9434 0.2207-0.5636 0.4095-0.6824 1.21-0.2656 1.783l4.418 6.08-1.924 0.3047c-0.2898 0.046-0.5681 0.1621-0.8047 0.334-0.5385 0.3913-0.6521 1.154-0.252 1.705 0.1931 0.2657 0.474 0.4404 0.7949 0.4941l5.748 0.9629c1.299 0.218 2.598-0.08582 3.654-0.8535 1.831-1.33 2.22-3.929 0.8652-5.793l-3.213-4.42c-0.4168-0.5737-1.214-0.7083-1.777-0.2988-0.21 0.1526-0.3594 0.361-0.4414 0.5898-0.434-0.3029-1.024-0.3194-1.469 0.003906-0.21 0.1526-0.3594 0.361-0.4414 0.5898-0.434-0.3029-1.026-0.3194-1.471 0.003906-0.186 0.1351-0.3226 0.3136-0.4082 0.5117l-1.236-1.701c-0.2084-0.2868-0.5121-0.4637-0.834-0.5176zm-0.09375 0.6309c0.1609 0.02701 0.3139 0.1145 0.418 0.2578l3.59 4.941c0.1043 0.1435 0.3024 0.1766 0.4434 0.07422 0.1411-0.1025 0.1707-0.3017 0.06641-0.4453l-1.699-2.34c-0.2082-0.2865-0.1493-0.6877 0.1328-0.8926 0.282-0.2049 0.6805-0.1362 0.8887 0.1504l1.701 2.34c0.1043 0.1435 0.3024 0.1767 0.4434 0.07422 0.141-0.1025 0.1707-0.3017 0.06641-0.4453l-1.322-1.82c-0.2082-0.2866-0.1492-0.6857 0.1328-0.8906 0.2821-0.2049 0.6805-0.1381 0.8887 0.1484l1.322 1.82c0.1043 0.1435 0.3042 0.1767 0.4453 0.07422 0.141-0.1025 0.1707-0.3017 0.06641-0.4453l-0.9453-1.301c-0.2083-0.2866-0.1492-0.6857 0.1328-0.8906 0.2821-0.2049 0.6824-0.1381 0.8906 0.1484l3.211 4.42c1.146 1.578 0.8174 3.776-0.7324 4.902-0.9202 0.6686-2.05 0.9326-3.182 0.7422l-5.748-0.9609c-0.1525-0.0251-0.2868-0.1107-0.3809-0.2402-0.1897-0.2611-0.1354-0.6241 0.1211-0.8105 0.1579-0.1147 0.3435-0.1917 0.5371-0.2227l2.43-0.3848c0.1083-0.0175 0.2-0.09186 0.2402-0.1934 0.0407-0.1019 0.02634-0.2187-0.03906-0.3086l-4.723-6.5c-0.2082-0.2866-0.1492-0.6877 0.1328-0.8926 0.141-0.1025 0.3098-0.1364 0.4707-0.1094zm-3.15 2.943c-0.1217-0.008525-0.2463 0.02883-0.3457 0.1152l-1.652 1.436c-0.1455 0.1268-0.1999 0.3269-0.1387 0.5098s0.2276 0.3108 0.4199 0.3242c0.1263 0.0089 0.2503-0.03224 0.3457-0.1152l1.65-1.434c0.1988-0.1725 0.2197-0.4751 0.04688-0.6738-0.0864-0.0994-0.2045-0.1536-0.3262-0.1621z" fill="#ef8031"/>
</svg>
