<svg width="280" height="150" fill="none" version="1.1" viewBox="0 0 280 150" xmlns="http://www.w3.org/2000/svg">
	<rect width="280" height="150" fill="#1f4a65"/>
	<mask id="mask0" x="0" y="0" width="280" height="150" mask-type="alpha" maskUnits="userSpaceOnUse">
		<rect width="280" height="150" rx="5" fill="#fff"/>
	</mask>
	<g mask="url(#mask0)" opacity=".25">
		<mask id="mask1" x="-137" y="-44" width="458" height="458" mask-type="alpha" maskUnits="userSpaceOnUse">
			<path d="m186.4-44-26.15 52.3-0.073 0.03658-54.36 27.18-27.21 54.44-0.0732 0.0382-54.36 27.18-27.21 54.44-0.07315 0.039-54.36 27.18-27.21 54.44-0.0731 0.036-52.22 26.12v-0.549l51.93-25.97 27.21-54.44 0.0731-0.038 54.36-27.18 27.21-54.44 0.0731-0.037 54.36-27.18 27.21-54.44 0.073-0.0366 54.36-27.18 25.96-51.94zm-234.7 0-2.334 4.668-0.0716 0.0366-54.36 27.18-27.21 54.44-4.666 2.334v-0.5472l4.302-2.15 27.21-54.44 0.073-0.0366 54.36-27.18 2.15-4.303zm10.2 0-5.734 11.47-0.0732 0.0365-54.36 27.18-27.21 54.44-11.47 5.737v-0.5488l11.1-5.553 27.22-54.44 54.43-27.22 5.552-11.11zm119.3 0-36.55 18.28-27.21 54.44-0.0731 0.0366-54.35 27.18-27.21 54.44-0.0731 0.036-54.36 27.18-18.27 36.55v-1.095l17.91-35.82 0.073-0.036 54.35-27.18 27.22-54.44 0.0715-0.0366 54.36-27.18 27.21-54.44 0.0731-0.0381 35.74-17.88zm-20.41 0-22.94 11.47-27.21 54.44-0.0731 0.0365-54.35 27.18-27.22 54.44-0.0715 0.037-54.36 27.18-11.47 22.94v-1.096l11.1-22.22 0.073-0.036 54.36-27.18 27.21-54.44 0.0731-0.0366 54.36-27.18 27.21-54.44 0.0731-0.0366 22.14-11.07zm40.82 0-50.15 25.08-27.21 54.44-0.0731 0.0366-54.36 27.18-27.21 54.44-0.0731 0.036-54.35 27.18-25.08 50.16v-1.096l24.71-49.43 0.073-0.037 54.36-27.18 27.21-54.44 0.0732-0.0381 54.36-27.18 27.21-54.44 0.0731-0.0366 49.35-24.68zm-129.5 0-9.138 18.28-54.43 27.22-27.21 54.44-0.073 0.0366-18.2 9.101v-0.5487l17.91-8.955 27.21-54.44 54.43-27.22 8.953-17.91zm68.23 0-9.333 4.668-27.21 54.44-0.07156 0.0366-54.36 27.18-27.21 54.44-0.0715 0.0366-54.36 27.18-4.666 9.334v-1.096l4.302-8.602 0.071-0.038 54.36-27.18 27.21-54.44 0.0731-0.0366 54.36-27.18 27.21-54.44 0.0731-0.0366 8.532-4.266zm-122.5 0-36.55 18.28-18.27 36.55v-1.096l17.91-35.82 0.073-0.0381 35.74-17.88zm20.41 0-50.16 25.08-25.08 50.16v-1.096l24.71-49.43 0.073-0.0366 49.35-24.68zm-40.82 0-22.94 11.47-11.47 22.94v-1.096l11.1-22.21 22.21-11.11zm125.7 0-26.15 52.3-54.43 27.22-27.21 54.44-0.0731 0.0382-52.22 26.11v-0.547l51.93-25.97 27.21-54.44 0.0731-0.0366 54.36-27.18 25.96-51.94zm-30.62 0-15.94 31.89-0.0732 0.0382-54.36 27.18-27.21 54.44-0.073 0.0366-31.81 15.91v-0.5472l31.52-15.76 27.21-54.44 0.0731-0.0366 54.36-27.18 15.76-31.52zm20.41 0-22.74 45.5-54.43 27.22-27.21 54.44-0.0715 0.0381-45.42 22.71v-0.547l45.12-22.57 27.21-54.44 0.0731-0.0365 54.36-27.18 22.56-45.13zm-10.2 0-19.34 38.69-0.0732 0.03817-54.36 27.18-27.21 54.44-0.0731 0.0381-38.61 19.31v-0.5471l38.32-19.16 27.21-54.44 0.0731-0.0366 54.36-27.18 19.16-38.33zm-20.41 0-12.54 25.08-54.43 27.22-27.21 54.44-0.073 0.0366-25 12.5v-0.5472l24.71-12.36 27.21-54.44 0.0715-0.03658 54.36-27.18 12.36-24.72zm142.9 0-5.735 11.47-54.43 27.22-27.21 54.44-0.0731 0.0365-54.35 27.18-27.21 54.44-0.0732 0.037-54.36 27.18-27.21 54.44-0.073 0.037-11.4 5.699v-0.549l11.1-5.553 27.22-54.44 0.0732-0.038 54.35-27.18 27.21-54.44 54.43-27.22 27.21-54.44 0.0731-0.03659 54.36-27.18 5.553-11.11zm183.7 0-12.54 25.08-0.073 0.0366-54.36 27.18-27.21 54.44-0.073 0.0366-54.36 27.18-27.21 54.44-0.073 0.035-54.35 27.18-27.21 54.44-54.43 27.22-27.21 54.44-0.0732 0.038-54.36 27.18-27.21 54.44-0.073 0.036-25 12.5v-0.547l24.71-12.36 27.21-54.44 0.0715-0.036 54.36-27.18 27.22-54.44 0.07315-0.038 54.35-27.18 27.21-54.44 0.0732-0.036 54.36-27.18 27.21-54.44 0.074-0.0365 54.36-27.18 27.22-54.44 54.43-27.22 12.36-24.72zm-132.7 0-22.74 45.5-0.073 0.03659-54.36 27.18-27.21 54.44-0.0732 0.0381-54.36 27.18-27.21 54.44-0.07316 0.036-54.36 27.18-27.21 54.44-0.0715 0.037-45.42 22.71v-0.547l45.12-22.57 27.21-54.44 0.0731-0.037 54.36-27.18 27.21-54.44 0.0731-0.038 54.36-27.18 27.21-54.44 0.0716-0.0365 54.36-27.18 22.56-45.13zm88.64 0-50.16 25.08-27.21 54.44-0.074 0.0366-54.36 27.18-27.22 54.44-0.073 0.036-54.35 27.18-27.21 54.44-0.0731 0.037-54.36 27.18-27.21 54.44-0.0731 0.037-54.35 27.18-25.08 50.16v-1.096l24.71-49.43 0.073-0.037 54.36-27.18 27.21-54.44 0.0732-0.037 54.36-27.18 27.21-54.44 0.0731-0.037 54.35-27.18 27.22-54.44 0.073-0.0381 54.36-27.18 27.21-54.44 0.073-0.0366 49.35-24.68zm54.23 0-15.94 31.89-0.073 0.0382-54.35 27.18-27.22 54.44-0.073 0.0366-54.36 27.18-27.21 54.44-0.074 0.036-54.36 27.18-27.21 54.44-0.0732 0.037-54.36 27.18-27.21 54.44-0.0732 0.037-54.36 27.18-27.21 54.44-0.073 0.037-31.81 15.91v-0.548l31.52-15.76 27.21-54.44 0.0731-0.037 54.36-27.18 27.21-54.44 0.07157-0.037 54.36-27.18 27.21-54.44 0.0732-0.037 54.36-27.18 27.21-54.44 54.43-27.22 27.22-54.44 0.073-0.0366 54.36-27.18 15.76-31.52zm-74.64 0-36.55 18.28-27.21 54.44-0.073 0.0366-54.36 27.18-27.21 54.44-0.0716 0.036-54.36 27.18-27.21 54.44-0.0731 0.036-54.35 27.18-27.21 54.44-0.0731 0.038-54.36 27.18-18.27 36.55v-1.095l17.91-35.82 0.073-0.036 54.35-27.18 27.22-54.44 0.0715-0.036 54.36-27.18 27.21-54.44 0.0731-0.036 54.36-27.18 27.21-54.44 0.073-0.0366 54.36-27.18 27.21-54.44 0.073-0.0381 35.74-17.88zm33.82 0-2.333 4.668-0.073 0.0366-54.36 27.18-27.21 54.44-0.072 0.0382-54.36 27.18-27.22 54.44-54.43 27.22-27.21 54.44-0.0731 0.037-54.36 27.18-27.21 54.44-0.0716 0.037-54.36 27.18-27.21 54.44-4.666 2.333v-0.547l4.3-2.15 27.22-54.44 0.073-0.037 54.36-27.18 27.21-54.44 0.0732-0.037 54.35-27.18 27.21-54.44 54.43-27.22 27.22-54.44 0.071-0.0382 54.36-27.18 27.21-54.44 0.074-0.0366 54.36-27.18 2.152-4.303zm10.21 0-5.736 11.47-54.43 27.22-27.21 54.44-54.43 27.22-27.21 54.44-0.073 0.037-54.36 27.18-27.21 54.44-54.43 27.22-27.21 54.44-0.0732 0.037-54.36 27.18-27.21 54.44-0.073 0.035-11.4 5.701v-0.547l11.1-5.555 27.22-54.44 0.0732-0.036 54.35-27.18 27.21-54.44 0.0732-0.037 54.36-27.18 27.21-54.44 0.0731-0.038 54.36-27.18 27.21-54.44 0.073-0.0366 54.35-27.19 27.22-54.44 0.073-0.03659 54.36-27.18 5.552-11.11zm10.2 0-9.138 18.28-0.071 0.0366-54.36 27.18-27.22 54.44-54.43 27.22-27.21 54.44-0.074 0.038-54.36 27.18-27.21 54.44-0.0715 0.037-54.36 27.18-27.21 54.44-0.0732 0.036-54.35 27.18-27.22 54.44-0.073 0.037-18.2 9.101v-0.547l17.91-8.957 27.21-54.44 0.0732-0.036 54.36-27.18 27.21-54.44 0.0732-0.036 54.36-27.18 27.21-54.44 0.0732-0.037 54.35-27.18 27.21-54.44 0.073-0.0366 54.36-27.18 27.21-54.44 0.072-0.03658 54.36-27.18 8.954-17.91zm-153.1 0-12.54 25.08-0.073 0.0366-54.35 27.18-27.21 54.44-0.0731 0.0366-54.36 27.18-27.21 54.44-0.0732 0.035-54.36 27.18-27.21 54.44-0.073 0.036-25 12.51v-0.549l24.71-12.36 27.21-54.44 0.0715-0.036 54.36-27.18 27.22-54.44 0.07315-0.0365 54.35-27.18 27.21-54.44 54.43-27.22 12.35-24.72zm10.2 0-15.94 31.89-0.074 0.0382-54.36 27.18-27.21 54.44-54.43 27.22-27.21 54.44-0.0732 0.036-54.36 27.18-27.21 54.44-0.073 0.037-31.81 15.91v-0.548l31.52-15.76 27.21-54.44 0.0731-0.037 54.36-27.18 27.21-54.44 0.07157-0.0366 54.36-27.18 27.21-54.44 54.43-27.22 15.76-31.52zm10.2 0-19.34 38.69-0.071 0.03817-54.35 27.18-27.22 54.44-0.0732 0.0381-54.36 27.18-27.21 54.44-0.0732 0.037-54.36 27.18-27.21 54.44-0.0731 0.037-38.61 19.31v-0.548l38.32-19.16 27.21-54.44 0.0731-0.036 54.36-27.18 27.21-54.44 0.0716-0.037 54.36-27.18 27.22-54.44 54.43-27.22 19.16-38.33zm-289 0-9.335 4.668-4.666 9.332v-1.094l4.302-8.604 0.071-0.0366 8.531-4.266zm326.6 0-9.335 4.668-27.22 54.44-0.073 0.0366-54.36 27.18-27.21 54.44-54.43 27.22-27.21 54.44-0.07156 0.038-54.36 27.18-27.21 54.44-0.0715 0.037-54.36 27.18-4.666 9.334v-1.096l4.302-8.603 0.071-0.037 54.36-27.18 27.21-54.44 0.0731-0.037 54.36-27.18 27.21-54.44 0.0731-0.038 54.36-27.18 27.21-54.44 0.073-0.0366 54.36-27.18 27.22-54.44 0.071-0.0366 8.53-4.266zm20.41 0-22.94 11.47-27.21 54.44-54.43 27.22-27.21 54.44-0.0732 0.037-54.36 27.18-27.21 54.44-0.0731 0.036-54.35 27.18-27.22 54.44-0.0715 0.037-54.36 27.18-11.47 22.94v-1.096l11.1-22.21 0.073-0.038 54.36-27.18 27.21-54.44 0.0731-0.036 54.36-27.18 27.21-54.44 54.43-27.22 27.21-54.44 0.073-0.0366 54.36-27.18 27.21-54.44 0.073-0.0366 22.14-11.07zm-88.64 0-9.137 18.28-0.074 0.0366-54.36 27.18-27.21 54.44-0.0715 0.0366-54.36 27.18-27.21 54.44-0.0732 0.038-54.36 27.18-27.21 54.44-0.073 0.037-18.2 9.101v-0.549l17.91-8.955 27.21-54.44 0.0732-0.037 54.36-27.18 27.21-54.44 54.43-27.22 27.21-54.44 54.43-27.22 8.955-17.91zm-20.41 0-2.334 4.668-0.074 0.0366-54.35 27.18-27.21 54.44-0.0731 0.0382-54.36 27.18-27.21 54.44-0.0716 0.037-54.36 27.18-27.21 54.44-4.666 2.335v-0.549l4.302-2.15 27.21-54.44 0.073-0.037 54.36-27.18 27.21-54.44 0.0732-0.0382 54.35-27.18 27.21-54.44 0.0731-0.0366 54.36-27.18 2.15-4.303zm137.9 458 22.7-45.4 0.073-0.037 45.41-22.71v0.549l-45.12 22.56-22.51 45.04zm-88.5 0 49.96-24.98 27.22-54.44 0.073-0.036 54.35-27.18 25.08-50.16v1.095l-24.71 49.43-0.073 0.038-54.36 27.18-27.21 54.44-0.073 0.036-49.16 24.58zm20.41 0 36.35-18.18 27.22-54.44 0.073-0.037 54.36-27.18 18.27-36.55v1.098l-17.91 35.82-54.43 27.22-27.22 54.44-0.073 0.037-35.55 17.78zm-105.4 0 26.1-52.2 0.073-0.037 54.36-27.18 27.22-54.44 0.072-0.037 54.36-27.18 27.21-54.44 0.073-0.038 52.22-26.11v0.547l-51.92 25.97-27.22 54.44-54.43 27.22-27.22 54.44-0.073 0.037-54.36 27.18-25.91 51.84zm20.41 0 19.29-38.6 0.073-0.036 54.36-27.18 27.21-54.44 0.073-0.038 54.36-27.18 27.21-54.44 38.68-19.34v0.547l-38.32 19.16-27.21 54.44-0.073 0.037-54.36 27.18-27.21 54.44-0.073 0.037-54.36 27.18-19.11 38.23zm10.2 0 15.89-31.79 0.073-0.036 54.36-27.18 27.21-54.44 0.073-0.036 54.36-27.18 27.21-54.44 31.88-15.94v0.548l-31.52 15.76-27.21 54.44-0.073 0.038-54.36 27.18-27.21 54.44-0.073 0.036-54.36 27.18-15.71 31.42zm-20.41 0 22.69-45.4 0.073-0.037 54.36-27.18 27.22-54.44 0.071-0.037 54.36-27.18 27.21-54.44 0.073-0.037 45.41-22.71v0.547l-45.12 22.56-27.21 54.44-54.43 27.22-27.22 54.44-54.43 27.22-22.51 45.04zm115.6 0 22.75-11.37 27.22-54.44 0.071-0.038 54.36-27.18 11.47-22.94v1.096l-11.1 22.21-0.073 0.037-54.36 27.18-27.22 54.44-0.073 0.038-21.94 10.97zm88.5 0 9.089-18.18 0.073-0.037 18.2-9.101v0.549l-17.91 8.953-8.904 17.82zm-173.5 0 12.49-24.98 0.073-0.038 54.36-27.18 27.21-54.44 0.073-0.037 54.36-27.18 27.21-54.44 0.073-0.037 25-12.5v0.549l-24.71 12.36-27.21 54.44-0.073 0.037-54.36 27.18-27.21 54.44-54.43 27.22-12.31 24.62zm183.7 0 5.687-11.37 11.47-5.736v0.549l-11.1 5.551-5.504 11.01zm10.21 0 2.284-4.57 0.073-0.036 4.593-2.297v0.549l-4.3 2.15-2.102 4.204zm-88.5 0 9.137-4.57 27.22-54.44 0.073-0.037 54.35-27.18 4.666-9.332v1.095l-4.3 8.602-0.073 0.036-54.36 27.18-27.21 54.44-0.073 0.037-8.335 4.167zm57.88 0 12.49-24.98 0.073-0.038 25-12.5v0.549l-24.71 12.36-12.31 24.62zm-40.82 0 26.1-52.2 0.073-0.037 52.22-26.11v0.549l-51.92 25.97-25.92 51.84zm30.62 0 15.89-31.79 31.88-15.94v0.549l-31.52 15.76-15.71 31.42zm-10.21 0 19.3-38.6 38.68-19.35v0.549l-38.32 19.16-19.11 38.23zm-306.2 0 12.49-24.98 0.0732-0.038 54.36-27.18 27.21-54.44 0.0731-0.037 54.35-27.18 27.22-54.44 0.073-0.037 54.36-27.18 27.21-54.44 0.073-0.037 54.36-27.18 27.21-54.44 0.073-0.0381 25-12.5v0.5488l-24.71 12.36-27.21 54.44-0.073 0.036-54.36 27.18-27.21 54.44-54.43 27.22-27.22 54.44-0.073 0.037-54.35 27.18-27.21 54.44-54.43 27.22-12.31 24.62zm-78.29 0 22.75-11.37 27.21-54.44 0.0731-0.038 54.36-27.18 27.21-54.44 0.0716-0.037 54.36-27.18 27.22-54.44 0.0732-0.036 54.35-27.18 27.21-54.44 54.43-27.22 27.22-54.44 0.071-0.0366 54.36-27.18 11.47-22.94v1.096l-11.1 22.21-0.073 0.03817-54.36 27.18-27.22 54.44-0.073 0.0381-54.35 27.18-27.22 54.44-0.071 0.037-54.36 27.18-27.21 54.44-0.0732 0.037-54.36 27.18-27.21 54.44-0.0732 0.037-54.36 27.18-27.21 54.44-0.0731 0.038-21.94 10.97zm251.8 0 9.089-18.18 0.071-0.037 54.36-27.18 27.21-54.44 54.43-27.22 27.22-54.44 0.073-0.037 18.2-9.101v0.547l-17.91 8.955-27.21 54.44-0.073 0.037-54.36 27.18-27.21 54.44-0.072 0.037-54.36 27.18-8.906 17.82zm-183.7 0 15.89-31.79 0.0716-0.037 54.36-27.18 27.21-54.44 54.43-27.22 27.21-54.44 0.073-0.036 54.36-27.18 27.21-54.44 0.073-0.036 54.36-27.18 27.21-54.44 0.073-0.0366 31.81-15.91v0.5487l-31.52 15.76-27.21 54.44-54.43 27.22-27.21 54.44-0.073 0.036-54.36 27.18-27.21 54.44-0.0716 0.038-54.36 27.18-27.21 54.44-0.0731 0.036-54.35 27.18-15.71 31.42zm-47.67 0 9.138-4.57 27.21-54.44 0.0731-0.037 54.36-27.18 27.21-54.44 0.0731-0.036 54.36-27.18 27.21-54.44 0.0716-0.037 54.36-27.18 27.22-54.44 0.073-0.038 54.36-27.18 27.22-54.44 54.43-27.22 4.666-9.332v1.096l-4.3 8.602-0.073 0.03659-54.36 27.18-27.21 54.44-0.073 0.0382-54.36 27.18-27.21 54.44-54.43 27.22-27.21 54.44-0.0732 0.037-54.36 27.18-27.21 54.44-0.07315 0.036-54.36 27.18-27.21 54.44-0.0715 0.037-8.335 4.167zm37.47 0 19.29-38.6 0.0731-0.036 54.36-27.18 27.21-54.44 0.0731-0.038 54.36-27.18 27.21-54.44 0.073-0.036 54.36-27.18 27.21-54.44 54.43-27.22 27.22-54.44 0.072-0.0366 38.61-19.31v0.5488l-38.32 19.16-27.21 54.44-0.073 0.037-54.36 27.18-27.21 54.44-0.073 0.036-54.36 27.18-27.21 54.44-0.0732 0.036-54.36 27.19-27.21 54.44-0.0731 0.037-54.35 27.18-19.11 38.23zm40.82 0 5.687-11.37 0.0732-0.037 54.36-27.18 27.21-54.44 54.43-27.22 27.21-54.44 0.073-0.037 54.35-27.18 27.22-54.44 0.073-0.038 54.35-27.18 27.22-54.44 0.073-0.0366 11.4-5.699v0.5471l-11.1 5.553-27.22 54.44-0.073 0.037-54.36 27.18-27.21 54.44-0.073 0.037-54.36 27.18-27.21 54.44-0.073 0.037-54.36 27.18-27.21 54.44-0.0731 0.035-54.35 27.18-5.504 11.01zm10.21 0 2.284-4.57 0.0732-0.036 54.36-27.18 27.21-54.44 0.0732-0.036 54.35-27.18 27.21-54.44 54.43-27.22 27.21-54.44 0.072-0.037 54.36-27.18 27.21-54.44 0.073-0.0366 4.593-2.297v0.5488l-4.3 2.149-27.22 54.44-0.071 0.038-54.36 27.18-27.22 54.44-54.43 27.22-27.21 54.44-0.074 0.036-54.36 27.18-27.21 54.44-0.0716 0.037-54.36 27.18-2.102 4.204zm-20.41 0 9.088-18.18 0.0732-0.037 54.35-27.18 27.21-54.44 54.43-27.22 27.22-54.44 0.071-0.037 54.36-27.18 27.21-54.44 54.43-27.22 27.22-54.44 0.073-0.0382 18.2-9.102v0.5488l-17.91 8.955-27.21 54.44-0.073 0.037-54.36 27.18-27.21 54.44-0.072 0.037-54.36 27.18-27.22 54.44-0.073 0.037-54.35 27.18-27.21 54.44-0.0731 0.037-54.36 27.18-8.906 17.82zm74.79 0 22.74-11.38 27.22-54.44 0.0732-0.038 54.35-27.18 27.21-54.44 54.43-27.22 27.22-54.44 0.071-0.036 54.36-27.18 11.47-22.94v1.096l-11.1 22.21-0.073 0.037-54.36 27.18-27.22 54.44-0.073 0.037-54.35 27.18-27.22 54.44-0.071 0.037-54.36 27.18-27.21 54.44-0.0732 0.038-21.94 10.97zm20.41 0 9.138-4.57 27.21-54.44 0.0716-0.037 54.36-27.18 27.22-54.44 0.073-0.036 54.36-27.18 27.22-54.44 0.073-0.037 54.35-27.18 4.666-9.334v1.096l-4.3 8.602-54.43 27.22-27.21 54.44-0.073 0.037-54.36 27.18-27.21 54.44-0.073 0.036-54.36 27.18-27.21 54.44-0.0732 0.037-8.333 4.167zm88.5 0 2.283-4.57 0.073-0.036 54.36-27.18 27.21-54.44 54.43-27.22 27.21-54.44 4.666-2.333v0.549l-4.3 2.15-27.22 54.44-0.071 0.036-54.36 27.18-27.22 54.44-0.073 0.036-54.35 27.18-2.101 4.204zm-10.21 0 5.687-11.37 54.43-27.22 27.22-54.44 54.43-27.22 27.21-54.44 0.073-0.037 11.4-5.699v0.549l-11.1 5.552-27.22 54.44-54.43 27.22-27.21 54.44-0.073 0.035-54.36 27.18-5.502 11.01zm-214.3 0 22.69-45.4 0.0731-0.037 54.36-27.18 27.21-54.44 0.0731-0.037 54.36-27.18 27.21-54.44 0.073-0.037 54.36-27.18 27.22-54.44 0.071-0.038 54.36-27.18 27.21-54.44 0.073-0.0366 45.41-22.71v0.5487l-45.12 22.56-27.21 54.44-0.074 0.0366-54.35 27.18-27.22 54.44-0.073 0.038-54.36 27.18-27.21 54.44-54.43 27.22-27.21 54.44-0.07156 0.036-54.36 27.18-22.51 45.04zm-10.2 0 26.1-52.2 0.0731-0.037 54.36-27.18 27.21-54.44 54.43-27.22 27.21-54.44 0.073-0.038 54.36-27.18 27.22-54.44 0.072-0.037 54.36-27.18 27.21-54.44 52.29-26.15v0.5488l-51.92 25.97-27.22 54.44-0.072 0.0382-54.36 27.18-27.22 54.44-0.073 0.039-54.36 27.18-27.21 54.44-0.0732 0.036-54.36 27.18-27.21 54.44-0.07315 0.037-54.36 27.18-25.91 51.84zm84.99 0 49.96-24.98 27.21-54.44 0.0731-0.036 54.36-27.18 27.21-54.44 0.074-0.038 54.36-27.18 27.22-54.44 0.073-0.036 54.35-27.18 25.08-50.16v1.096l-24.71 49.43-0.073 0.035-54.36 27.18-27.21 54.44-54.43 27.22-27.21 54.44-0.073 0.038-54.35 27.18-27.21 54.44-0.0731 0.036-49.15 24.58zm320-299.7v1.096l-17.91 35.82-54.43 27.22-27.22 54.44-0.073 0.037-54.35 27.18-27.21 54.44-54.43 27.22-27.21 54.44-35.62 17.82h-1.097l36.35-18.18 27.21-54.44 0.0732-0.037 54.36-27.18 27.21-54.44 54.43-27.22 27.22-54.44 0.073-0.037 54.36-27.18z" clip-rule="evenodd" fill="#fff" fill-rule="evenodd"/>
		</mask>
		<g mask="url(#mask1)">
			<path d="m-137 414h458v-458h-458z" clip-rule="evenodd" fill="url(#paint0_linear)" fill-rule="evenodd"/>
		</g>
	</g>
	<path d="m139 25.39c-25.11 0-45.5 20.39-45.5 45.5 0 25.11 20.39 45.5 45.5 45.5s45.5-20.39 45.5-45.5c0-25.11-20.39-45.5-45.5-45.5zm0 3c23.49 0 42.5 19.01 42.5 42.5 0 23.49-19.01 42.5-42.5 42.5s-42.5-19.01-42.5-42.5c0-23.49 19.01-42.5 42.5-42.5zm-17.83 15.61c-0.646 0-1.17 0.5239-1.17 1.17v46.78c0 0.646 0.5239 1.17 1.17 1.17h37.66c0.646 0 1.17-0.5239 1.17-1.17v-38.6c0-0.0392-0.00186-0.07859-0.00586-0.1172-3e-3 -0.0284-0.00772-0.05618-0.01172-0.08398-1e-3 -0.0046-0.00195-0.009072-0.00195-0.01367-1e-3 -0.0051-0.00291-0.01042-0.00391-0.01562-6e-3 -0.0335-0.01539-0.06711-0.02539-0.09961-1e-3 -0.0039-9.5e-4 -0.007919-0.00195-0.01172-0.01-0.033-0.02316-0.064-0.03516-0.0957l-0.00195-0.00586-0.00195-0.005859c-0.013-0.0299-0.02602-0.05939-0.04102-0.08789-2e-3 -0.005299-0.00581-0.01032-0.00781-0.01562-0.014-0.0256-0.02892-0.04982-0.04492-0.07422-1e-3 -0.0019-0.00191-0.00396-0.00391-0.00586-1e-3 -0.0017-9.5e-4 -0.004159-0.00195-0.005859-1e-3 -0.0026-0.00291-0.005313-0.00391-0.007812-1e-3 -0.001801-0.00191-0.002107-0.00391-0.003907-0.014-0.0209-0.02992-0.04065-0.04492-0.06055l-0.00195-0.003906c-3e-3 -0.0039-0.00677-0.007719-0.00977-0.01172-4e-3 -0.0055-0.00771-0.01032-0.01171-0.01562-0.01901-0.0231-0.03955-0.04491-0.06055-0.06641-3e-3 -0.0028-0.00481-0.006966-0.00781-0.009766-2e-3 -0.0034-0.00482-0.006565-0.00782-0.009765l-8.188-8.188c-3e-3 -3e-3 -0.00676-0.005013-0.00976-0.007813-3e-3 -0.0023-0.00482-0.005412-0.00782-0.007812-0.02199-0.0209-0.0434-0.04135-0.0664-0.06055-5e-3 -0.0043-0.01258-0.007819-0.01758-0.01172l-0.00976-0.007812-0.00196-0.001953c-0.021-0.016-0.0415-0.03248-0.0625-0.04688-4e-3 -0.0028-0.00967-0.005313-0.01367-0.007813l-0.00977-0.005859c-0.025-0.0159-0.05017-0.03102-0.07617-0.04492l-0.00781-0.003906-0.00781-0.003907c-0.029-0.015-0.05789-0.02842-0.08789-0.04102l-0.00391-0.001953-0.00586-0.001953c-0.032-0.0129-0.06465-0.02506-0.09765-0.03516l-0.00586-0.001953h-0.00586c-0.032-0.0095-0.06661-0.01879-0.09961-0.02539-6e-3 -0.001101-0.00963-0.001254-0.01563-0.001954-4e-3 -6e-4 -0.00967-0.001153-0.01367-0.001953l-0.00391-0.001953c-0.027-0.0046-0.05307-0.009019-0.08007-0.01172-0.039-0.0042-0.07819-0.005859-0.1172-0.005859h-29.47zm1.17 2.34h27.13v7.018c0 0.646 0.522 1.168 1.168 1.168h7.018v36.26h-35.32v-44.44zm29.47 1.654 4.195 4.193h-4.195v-4.193z" fill="#fff"/>
	<path d="m127 48.68c-0.646 0-1.17 0.524-1.17 1.17v16.84c0 0.646 0.5239 1.17 1.17 1.17h16.84c0.646 0 1.17-0.5239 1.17-1.17v-3.73c0-0.646-0.5239-1.17-1.17-1.17-0.645 0-1.17 0.5239-1.17 1.17v2.561h-14.5v-14.5h14.5v7.953c0 0.646 0.5249 1.17 1.17 1.17 0.646 0 1.17-0.5239 1.17-1.17v-9.123c0-0.6459-0.5239-1.17-1.17-1.17zm8.42 3.977c-1.934 0-3.508 1.575-3.508 3.51 0 1.935 1.574 3.508 3.508 3.508 1.935 0 3.51-1.573 3.51-3.508 0-1.935-1.575-3.51-3.51-3.51zm0 2.34c0.645 0 1.17 0.525 1.17 1.17 0 0.6449-0.5249 1.168-1.17 1.168-0.644 0-1.168-0.5231-1.168-1.168 0-0.6449 0.524-1.17 1.168-1.17zm-3.742 5.848c-0.646 0-1.17 0.5239-1.17 1.17s0.5239 1.17 1.17 1.17h7.484c0.646 0 1.17-0.5239 1.17-1.17s-0.5239-1.17-1.17-1.17zm-4.678 10.53c-0.646 0-1.17 0.524-1.17 1.17 0 0.646 0.5239 1.17 1.17 1.17h25.96c0.646 0 1.17-0.5239 1.17-1.17 0-0.6459-0.5239-1.17-1.17-1.17zm0 5.848c-0.646 0-1.17 0.5239-1.17 1.17s0.5239 1.17 1.17 1.17h25.96c0.646 0 1.17-0.5239 1.17-1.17s-0.5239-1.17-1.17-1.17zm0 5.848c-0.646 0-1.17 0.524-1.17 1.17 0 0.646 0.5239 1.17 1.17 1.17h25.96c0.646 0 1.17-0.5239 1.17-1.17 0-0.6459-0.5239-1.17-1.17-1.17z" fill="#ff9f51"/>
	<defs>
		<linearGradient id="paint0_linear" x1="-73.04" x2="95.42" y1="188.5" y2="357" gradientUnits="userSpaceOnUse">
			<stop stop-color="#16A997" offset="0"/>
			<stop stop-color="#C16EA0" offset="1"/>
		</linearGradient>
	</defs>
</svg>
