<svg width="120" height="38" version="1.1" viewBox="0 0 120 38" xmlns="http://www.w3.org/2000/svg">
	<path d="m0 0v38h38v-38h-38zm41 0v38h38v-38h-38zm41 0v38h38v-38h-38z" fill="#ef8031"/>
	<path d="m16.94 10.2-6.863 16.8h3.721l1.246-3.145h7.682l1.223 3.145h3.721l-6.84-16.8h-3.889zm35.87 0v16.8h3.6v-6.863h2.711l4.584 6.863h3.984l-5.76-8.615 5.447-8.186h-4.008l-4.248 6.672h-2.711v-6.672h-3.6zm41 0v16.8h7.295c3.312 0 6.432-1.103 6.432-5.279 0-4.152-3.12-5.281-6.432-5.281h-3.695v-3h8.76v-3.24h-12.36zm-74.92 3.336c0.12 0.648 0.2394 0.9843 0.3594 1.32l2.352 6.025h-5.424l2.328-6.025c0.144-0.336 0.2648-0.6723 0.3848-1.32zm78.52 6.072h3.719c1.416 0 2.736 0.3133 2.736 2.113s-1.32 2.111-2.736 2.111h-3.719v-4.225z" fill="#fff"/>
</svg>
